<svg xmlns="http://www.w3.org/2000/svg" viewBox="0 0 750 450"><defs><style>.cls-1{fill:#fff;opacity:0.05;}</style></defs><title>map-pattern</title><g id="Layer_2" data-name="Layer 2"><g id="Ñëîé_1" data-name="Ñëîé 1"><path class="cls-1" d="M750,91.72c-9.27,4.11-23.67,11.16-32.26,18.61a10,10,0,0,0-.08-6.53c-1.53-4.37-6.85-10.56-23.45-15.76-24.41-7.65-48.06-11.65-71-12.14a219.64,219.64,0,0,0-24.24.82L522.21,43.66a1.46,1.46,0,0,0-.27,0l-77.27-6.76c-3.09-3.55-4.51-7.15-6.15-11.35a84.2,84.2,0,0,0-3.61-8.25c-3.85-7.46-12.16-11.74-18.38-14A65.56,65.56,0,0,0,403.87,0l-.33.17A65.57,65.57,0,0,1,416,3.37c6.15,2.25,14.37,6.5,18.17,13.9a86.12,86.12,0,0,1,3.59,8.25c1.63,4.19,3,7.79,6.09,11.33-3.51.19-27.41,1.51-54.13,4-17.14,1.61-32.15,3.39-44.59,5.31C330,48.5,318.69,51,311.42,53.67c-3.47-2.48-6.72-5-9.55-7.42-7.26-6.25-10.24-12.67-9.09-19,1.18-6.58.86-17.85-13.61-23.29l-1.7.34c7.32,2.76,10.89,7,12.48,11.44C283,25.11,262.94,31,246.8,34.33a141.84,141.84,0,0,0-28.19,8.53C210.9,46.3,205.49,50.21,203,54.18c-1.64,2.66-2,4.91-1,6.67,2.27,4.16-6.66,9.58-14.74,13.47-9,4.32-18.79,7.69-18.88,7.73l-.06,0,0,0L141.07,97.44l.42.06c.16,0,4,.54,14.54,1.08a86.9,86.9,0,0,1,9.14.73l-24.49,2-2.08-.93a60.51,60.51,0,0,1-4.31-5.15c-1.81-2.49.63-12.09.65-12.19v0l-3.18-12.36c-.55-2.13-3.65-3.92-8.71-5a72.43,72.43,0,0,0-18.82-1.13L41.31,67.9A213.27,213.27,0,0,0,3.4,59c-1.19-.17-2.32-.37-3.4-.58v.38c.9.16,1.81.32,2.76.46A207.41,207.41,0,0,1,44.6,69.58c12,4.43,19.88,10,23.42,16.61l6.91,12.94c-8.6-1.5-23.78-3-50.76-3.44Q11.31,95.45,0,94.89v1q3.95.19,8.07.34c-1.65.7-4.67,2-8.07,3.76v.55c3.91-2,7.41-3.57,9.07-4.27q6.78.24,14.05.37c3.67.07,7.11.15,10.34.25L21.12,110.41a7,7,0,0,0-1.2,1.78q-3.93.44-7.68,1c-4.38.63-8.45,1.38-12.24,2.26v.37c3.82-.9,7.91-1.66,12.35-2.3q3.62-.52,7.44-.94c-.61,1.8.15,3.49,2.28,4.89,3,2,8.48,3.27,15.44,3.61l17.83.89c-17,2.49-36.43,6-53.79,15.29H0v.42H.77l-.77.43v.65c.64-.37,1.29-.73,1.93-1.08,20.67,0,35.31.12,35.66.12.17,0,13.29-.08,30.71-1-1,1.48-6.67,9.47-7.3,10.54-.44.38-6,1.82-14,3.7-11-1.61-28.6-3.9-47-5.23v.47c17.73,1.31,34.67,3.5,45.59,5.08-7.83,1.83-17.72,4-27.31,6.11l-.31.07-3.38,3.8C9.4,161.18,4.47,161,0,160.64v.5c4.37.29,9.15.51,14.18.68l-8,9L0,171v.47c8.4-.22,13.71-.23,14.14-.23h.12c.13,0,12.43-.77,35.32-2.28a132.88,132.88,0,0,1,31.21,1.4c5.38.74,11.5,1.58,19.62,2.07,19.66,1.18,37.28-4.19,40.58-5.27a44.11,44.11,0,0,0,11.21,4.77,27.33,27.33,0,0,1,9.22,4.77l-.51.25.81,0a28.33,28.33,0,0,1,4,4,129.36,129.36,0,0,1-30.87,1.55c-13-.85-23-2.32-30.29-3.4-4.4-.65-7.58-1.12-9.78-1.2l-4.29-.22c-14.22-.76-51.74-2.76-67.75-.55A204.79,204.79,0,0,0,0,179.76v.47a200.1,200.1,0,0,1,22.53-2.67l.16,0c15.67-2.18,54.47-.11,67.3.58l4.33.22c2.08.08,5.37.56,9.55,1.18,7.32,1.08,17.4,2.57,30.49,3.42,3.27.22,6.37.31,9.27.31a128.2,128.2,0,0,0,22.44-1.92,28.32,28.32,0,0,1,3.58,5.83,68.34,68.34,0,0,1-13.79,0c-3.26-.31-6-.72-8.45-1.08-5.73-.84-10.24-1.51-16.88-.37-1.12.19-2,.35-2.76.49-3.21.57-3.21.57-7.56.29-1.87-.13-4.42-.3-8.18-.49-15.33-.8-62.6-.59-64.61-.58h-.07a320.37,320.37,0,0,0-32.65,2.64c-1.26,0-6.75.16-14.7.22v1.39l5.16-.06c-1.73.33-3.45.69-5.12,1.07H0v1.38l.85-.21c18.77-4.33,44.51-5,45.58-5.06h.69a60.77,60.77,0,0,0,6,3.24L21.39,206.36,0,202.24v.69l48.06,9.26c-8,4.4-15.1,8.28-18.19,9.79-10.14,5-20.42,4.58-25.61,3.89a18.46,18.46,0,0,0-4.26,0v.57a15.28,15.28,0,0,1,3.45,0c5.53.74,16.47,1.17,27.32-4.17,8.61-4.24,47.06-25.95,51-28.16,2,.19,3.75.42,5.33.68,3,.49,12.24,1.05,21.16,1.51l-11.49,6.81-11,7.39c-.14.1-13,9.16-23.32,13.86-8.43,3.85-14.71,7.06-17.52,12.19-2.81.38-12.33,1.72-13.91,2.28s-9.22,2.94-12.47,3.91c-.5.16-1.09.33-1.74.52a96.94,96.94,0,0,0-9.9,3.27A68.6,68.6,0,0,0,0,251.16v1a32.88,32.88,0,0,0,9.56,1.34c6.89.15,12.27,0,25.91-1.28,1.37-.13,2.64-.29,3.83-.48L39,252c.2,0,20.59,3.84,26.81,6.46a46.46,46.46,0,0,0,10.56,2.91c-12.07,6.24-24.76,14.1-26.94,17.81a30.78,30.78,0,0,1-2.3,3.28c-11.61-1.19-15.61-2.87-22.82-5.9q-2.19-.93-5-2.06C14.15,272.41,7.4,271,0,269.77v.85c7,1.19,13.27,2.54,18.12,4.49,1.84.75,3.49,1.44,4.94,2.05,7.17,3,11.36,4.79,23.43,6-2.33,2.86-5.41,6.06-8.64,9.43s-6.38,6.65-9.19,10c-3.35,4-13.85,13.42-24.32,22.85q-2.19,2-4.34,3.91v1.47l5.73-5.18c10.48-9.46,21-18.95,24.38-23,2.79-3.31,6-6.69,9.13-9.93s6.27-6.55,8.61-9.43c3.24.31,7,.59,11.52.85,14.12.81,23.18.42,28.6-.13C67.64,303,21,338.45,0,354.26v1.34c20.54-15.43,69.05-52.31,89.69-71.74a37.22,37.22,0,0,0,4.85-.86c2.25-.13,26.07-1.23,26.22,8.54a11.83,11.83,0,0,1-.23,2.45c-2.47.79-14.36,4.71-20.64,8.45s-81,60.9-96,72.4c-1.27-1.79-2.56-3.47-3.86-5.07v8.14C10.67,393.85,19.6,417,19.59,450h5.49a210.71,210.71,0,0,1,16.84-40.52c16.26-30.4,40.76-49.67,58-60.36A172.86,172.86,0,0,1,132.59,333c1.91-.59,35.1-11.15,40-20.71a55.4,55.4,0,0,1,8.87-12,73.42,73.42,0,0,0,8.5-.11c4.6-.37,19.23,3.57,21.15,5.35a10.27,10.27,0,0,0,3.17,1.31L171.23,409.68,68.05,450h3.24l101.49-39.73.11-.27,42.76-102.71c7.64,2.13,22.29,4.86,25.61,5.48l2.49,25.88c-.53,1.19-7.55,17.21-8.71,35.4-.73,11.6,1,21.75,5.29,30,5.51,10.66,15.16,18,28.65,21.69.73.36,8.28,4.37,13.9,17.25a64,64,0,0,1,2.53,7h2a63.58,63.58,0,0,0-2.78-7.63,49.89,49.89,0,0,0-4.25-7.76c-11.75-26.36-18.57-48.94-20.81-67.71-2.1-17.67,6.3-35.3,22.93-49.84l7.93-6.93c5.4,8.44,10.23,15.21,10.72,15.9l.07.07c.54.43,57.83,46.75,87.83,99.17-3.81,8.48-8.26,17-12.58,24.73h2c10.18-18.37,20.95-40.8,22.44-57.69.95-10.64,2.53-23.18,4.1-34.38,14.22-.95,30.17-4.14,47.54-9.48a69.33,69.33,0,0,0,10.24-4,239.09,239.09,0,0,1,19.33,24.68C494.89,387.93,510,416.59,513,450h1.92a148.52,148.52,0,0,0-7.72-35.33,195.22,195.22,0,0,0-23.54-45.89,240,240,0,0,0-19.65-25c6.95-3.61,12.16-8.12,15.13-13.14,4.34-7.34,3.59-15.26-1.91-22.31l-.37-.47c-6.25-7.9-7.28-10.21-6.63-11.37,9.74,2.31,20.08,4.27,27.87,4.33,1.07,0,2.21,0,3.4.09l8.12,31.22c0,.18,4.31,13.33,18.76,30.28.58,3.45,8.89,54.83-1.64,78.74-1.24,2.8-2.54,5.75-3.9,8.81h5.42c1.15-2.64,2.26-5.19,3.31-7.62,8.85-20.41,4.37-59.27,2.22-73.94a161.81,161.81,0,0,0,17,15.45c24.25,19.16,42.3,42,51.63,66.11h5.09a131.39,131.39,0,0,0-10.43-20.9c4.19-8.53,21.44-45.37,13.12-58.93-.31-.49-.6-1-.9-1.51l32.54-30.75a.26.26,0,0,0,.07-.29c-.6-1.64-2.26-12.24-3.71-22l18.4,11.47a1.44,1.44,0,0,0,.73.19h.13c.3,0,.49-.16.5-.33l1.45-24.66,9-3.26,11.14,3.85a20.71,20.71,0,0,0-.66,5.24,28.5,28.5,0,0,1-1.16,7.88c-1.64,5.12-5.75,9.92-8.8,13.47-.76.89-1.48,1.73-2.06,2.47a40.72,40.72,0,0,1-4.66,4.88c-7.67,6.81-26.22,24.42-26.73,35.56-.1,2.39-.45,5-.81,7.81-1.87,14.26-4.3,32.89,21.6,45.26,14.65,7,21.91,15.41,29.56,24.55h3.3a281.22,281.22,0,0,0,12.61-28.57c13,6,28.13,13.12,45.65,21.63l2.66,1.3V443l-1.78-.87c-17.72-8.6-33-15.8-46.12-21.81,5.08-13.56,10.16-30.09,12.67-47.09A245.27,245.27,0,0,0,750,384.05v-1c-40.29-8.6-88.81-35.44-94.09-38.41,3-2.94,5.69-5.46,7.7-7.25a40.52,40.52,0,0,0,4.73-5c.58-.73,1.29-1.57,2-2.45l.88-1c2.09,1.25,8,4.38,19.86,8,11.38,3.46,30.33,7.91,58.87,11V347c-28.23-3-47-7.43-58.18-10.82-12.67-3.83-18.5-7.17-19.9-8,2.79-3.34,5.94-7.47,7.34-11.85a29.34,29.34,0,0,0,1.15-8,20.82,20.82,0,0,1,.57-4.94l17.64,6.1.06,0c.35.1,8.8,2.58,27.31,4.13,6.33.53,14.33,1,24,1.13v-.83c-9.68-.14-17.69-.59-24-1.11-17.71-1.47-26.24-3.85-26.78-4l-18-6.21a8.1,8.1,0,0,1,3-3.73,81,81,0,0,1,14-7.56c.22-.1,5.67-2.7,13.81-6.67,1.4.14,2.81.27,4.2.38,8.81.67,20.07,1.22,33.8,1.32v-2c-13.94-.08-25.36-.63-34.25-1.31l-.39,0c9.91-4.85,22.63-11.19,34.64-17.48v-1.19c-12.71,6.67-26.36,13.45-36.7,18.5a187.27,187.27,0,0,1-37.37-7.23c-10.21-3.12-25.95-8.3-43.59-15.44l10.07-9.05.05-.07c.11-.22,2.61-5.33.1-7.87A24.45,24.45,0,0,0,639.9,241a14.61,14.61,0,0,1-4.78-5.2c-1.89-3.9-6.56-6.15-11.3-8-2.82-1.1-7.08-1.85-11.57-2.63a99.53,99.53,0,0,1-9.87-2.06c-6.51-1.92-13.46-3.74-21-3.34-4.36.23-5.79,1-7.45,1.89a21.08,21.08,0,0,1-6.09,2.23c-2.83.63-4.3,1.28-4.6,2s.9,1.68,2.22,2.54c.45.3.91.6,1.33.92a11.21,11.21,0,0,0,5.4,2.31c.62.14,1.32.29,2.17.51,4.3,1.1,10.12,2.54,13.33,3.15,2.45.46,4.74,1,7.17,1.56.87.21,1.77.42,2.72.63.32.08.93.24,1.77.49l-5.94,7.83c-9.09-3.14-18.21-6.2-26.76-9.08l-14.86-5,7.13-19.23a.14.14,0,0,0,0-.09l-.82-2.83c2.07.54,6.94,1.79,12.23,3.08,3.34.82,6.93,1.55,10.41,2.25,4,.8,8,1.63,11.86,2.61a212.7,212.7,0,0,0,25.63,5.08c6.68.85,10.66,2.43,16.21,4.64,2.11.83,4.5,1.79,7.33,2.81,10.17,3.67,27.92,4.38,29.53,4.44l78.7,12v-1.09a142.33,142.33,0,0,1-15.15-10.19c-1.18-.92-2.43-1.83-3.72-2.73,6,1.38,12.29,2.81,18.87,4.27v-1.65c-8-1.77-15.58-3.5-22.66-5.14-11.62-7.42-26.16-14.06-37.77-18.83,2.68.43,4.41.69,4.79.75s23.87,4,55.3,9.28c.18,3.05.28,6.45.34,9.74v-18.3a8.66,8.66,0,0,0-.49-1.55c-.65-1.42-2.31-3.14-4.51-5l5,.24v-.55l-5.69-.27c-2.08-1.72-4.55-3.57-7.07-5.45-4.6-3.44-9.29-6.95-11.49-9.72-4.06-5.1-3.08-15.47-2.77-18,9.25,0,18.35-.07,27-.12v-1.32c-14.63.09-30.57.15-46.32.15L693,157.39l34.45-1.67c5.77,3.52,11,6.16,15.59,8.48,2.59,1.3,4.92,2.48,7,3.64v-.7c-1.85-1-3.89-2-6.11-3.16-7.48-3.76-16.61-8.36-27-16.21-5.15-3.9-7.78-8-8.9-11.84l15.07,1.49c8.83.88,17.81,1.78,26.9,2.56v-.41c-9.08-.78-18.07-1.67-26.9-2.55q-7.56-.77-15.18-1.5a18.36,18.36,0,0,1,.56-10.74c14.6.85,27.87,1.82,38.36,2.58l3.16.23v-.38l-3.26-.24c-10.43-.76-23.61-1.72-38.13-2.56l.33-.86a29.83,29.83,0,0,1,2.9-5.36c8.81.47,17.83.85,26.84,1.12,3.56.11,7.35.21,11.32.29v-.36c-13.07-.26-25.87-.75-37.92-1.39a35.22,35.22,0,0,1,4.73-5.53c5-4.92,12.83-9.76,20.43-13.77l12.76,6v-.52l-12.25-5.77c2.4-1.26,4.77-2.43,7-3.5L750,97.09v-.48l-4.72-2.08c1.66-.79,3.25-1.51,4.72-2.18ZM687.22,449.35c-7.43-8.83-15.16-17.66-30.08-24.78-17.8-8.48-21.69-20.27-21.8-31.39,4.95,1.79,25.36,9.45,64.62,27.46A282.35,282.35,0,0,1,687.22,449.35Zm25.85-76.73c-2.52,16.93-7.6,33.41-12.7,46.95-41.06-18.78-61.46-26.25-65-27.52a102,102,0,0,1,1-11.59c.36-2.81.7-5.44.8-7.86.34-7.82,9.87-19,18-27.21A489.82,489.82,0,0,0,713.07,372.62Zm-115-295.81c-7.75.73-14.31,1.77-19.35,2.74a132.91,132.91,0,0,0-17.15,4.34c-.64.17-10.61,2.91-13.55,3.92-2.6.89-5.44,1.55-6.11,1.7l-12.7-.79c-.16-1.83-1.21-4-3.09-6.6l-.15-.19s-2.8-3.35-10.75-8.58c-3-1.95-6.93-4.34-12-7l50.7-8.57Zm-39.43,117.8.94,3.12-.25,1c-2.67-1.63-10.29-5.84-17.61-5.61l-5.47.14L535,188.35c2.33.3,4.59.52,6.62.6l18.27.73-1.25,4.87A.06.06,0,0,0,558.65,194.61Zm-3.41,51.33a21.33,21.33,0,0,1,6.93.89c1.1.44,1.72,1,1.9,1.76.79,3.24,3.06,12.47,3.33,13.6l0,.11a15,15,0,0,0,1.46,3.39c.64,1.15.52,1.95-.34,2.39a7.32,7.32,0,0,1-3.3.38l-12-9.23,3.7-2.57a.2.2,0,0,0,.11-.2Zm.42,10.37-3.29,2.28-19-12.88c2.22-.92,8.83-3.76,8.54-5a9.24,9.24,0,0,1,.21-3.23l4.85-.14a.93.93,0,0,0,.39-.08l2.18-1,3.17,2.61ZM549,235.58l-2.52,1.18-5.11.15c-.3,0-.52.1-.56.24a10.67,10.67,0,0,0-.27,3.61c.16.65-4.22,2.84-8.58,4.61-.25.1-.28.28-.07.42l20,13.57,12.42,9.58a1,1,0,0,0,.51.18,12.65,12.65,0,0,0,1.57.09,7.89,7.89,0,0,0,3.3-.59c1.19-.61,1.4-1.63.62-3a14.47,14.47,0,0,1-1.42-3.28l-.06-.22a2.59,2.59,0,0,1,.75-2.84,4.33,4.33,0,0,1,2.11-.69l3,10.34c.05.15.3.29.61.34l27.2,3.83,4.86,1.09,1.07,8.09-6.34,3.92L565.6,272.45a1.65,1.65,0,0,0-.59-.08.72.72,0,0,0-.45.17L558,279.13l-18.55-4.58c-2.43-6.88-11.18-18.8-18.16-25.53-1.77-1.71-3.7-3.66-5.72-5.72-2.56-2.6-5.34-5.41-8.31-8.25l33.4-5.21c2.92,1,6,2.09,9.22,3.19Zm51.58,21.34,10.63,4.2-.65,4.44s0,0,0,.06l2.07,9-9.34-2.1-4.82-14.21Zm-3.2.84-19.45-3.06L573.68,248l1.49-1.11,24.19,9.55Zm25.83,37.09,9.65-8.12,8.83,3.06-7.23,7.53Zm13.18,18.88-17.47-5.44v-.08l11.86-10.9,3.4.75C634.35,299.58,635.27,306.24,636.35,313.73Zm-29.25,54-58.86-11.83,1.88-6.47a.2.2,0,0,0,0-.15l-6.55-25.21c0-2.24-.09-10.7-.38-18.79l1.33.17c5.9.76,12,1.54,17.79,2.23a97.52,97.52,0,0,0,11.47.73,61,61,0,0,0,12.3-1.15c2.2,2.4,13.35,15.29,7.89,22.39a.21.21,0,0,0-.05.2C594,330.13,599.22,353.17,607.1,367.77ZM543.16,304.5c-.2-5.17-.48-10.11-.88-13.17-.48-3.67-.91-5.72-1.25-7.35a38.79,38.79,0,0,1-.92-6.72,8.63,8.63,0,0,0-.36-1.86l17.93,4.43,0,2.93a.13.13,0,0,0,0,.06l7.8,24.42c-1-.09-2-.19-3.06-.31-5.74-.69-11.85-1.47-17.74-2.23Zm23.92,2.87-7.91-24.55,0-2.63,49.63,12.27c-2.8,2.3-5,4.21-6.31,5.39C596.82,303.11,587.6,308.9,567.08,307.37Zm-7.66-27.9,6.11-6.2L601.89,287a1.26,1.26,0,0,0,1,0l6.89-4.26a.24.24,0,0,0,.13-.22l-1.08-8,4,.9,1.72,4.84a.58.58,0,0,0,.38.3l6.05,2.09c-4.07,3.24-8.09,6.47-11.43,9.21Zm62.25,2.58-5.76-2-1.54-4.31,11.87,2.68Zm6-3.25,9.17,3-4.65,3.9L623,282.51Zm-5.39,4.29,9.21,3.18-9.83,8.25L611,292.19C614.32,289.47,618.28,286.28,622.27,283.09Zm11.25,3.05,4.67-3.92,8.18,2.65-4.11,4.29Zm5.47-4.47,9.21-5.46c5.48,2.39,11.38,5,14.17,6.12L658,287.81Zm-1.38-.45-9.24-3,8.7-6.87,9.91,4.32ZM627,277.84,614.11,275,612,265.7l.59-4,23.3,9.19C633.29,272.86,630.22,275.27,627,277.84Zm-25.25-5.59L576,268.63l-1.3-4.45,25.55,3.67Zm-3.15-9.35,1.42,4.21-25.51-3.66-1.41-4.81Zm-84.77,4.85c-3.18-.32-12.51.33-16.34.62a69.71,69.71,0,0,0-4.23-11.62l31.91-2c5.45,6.42,10.93,14.51,12.82,19.68l-17.24-.8-.34-1.75C520.22,271,518.26,268.21,513.81,267.75Zm5.46,5.78-20.84-.95c-.19-1-.44-2.19-.77-3.5,3.67-.27,13-.93,16-.63,3.34.34,5.15,2.57,5.3,3.4ZM268.81,290.19c-3.45,1-9,.87-12.54.24-5.75-1.05-20.49-.61-38.59,1.14-17.93,1.74-26.28,2-27.7,2.06-.16-.06-.44-.16-.8-.31a58.22,58.22,0,0,1,14.63-8.42c9.07-3.51,15.45-7,20.22-11.41.73,0,1.44.06,2.15.06,5.77,0,10.65-1.31,15.9-2.73,3-.82,6.16-1.66,9.69-2.31a46.09,46.09,0,0,1,24.12,2c-.35,1.93-.7,3.75-1.05,5.38-.43,2,.23,5,1.58,8.58a8.78,8.78,0,0,0-4.81,4A4.47,4.47,0,0,1,268.81,290.19Zm1.09.5-5.22,12.45H247.77l-3.54-3.62-.12,0-20.06-7.72c17.5-1.46,27.83-1.28,31.55-.6,3.9.71,9.91.83,13.82-.31ZM158,256.57l5.8-1.06.18,0,15.18-4.92c2.08,2,15.22,14.35,31.5,20.09a52.44,52.44,0,0,0,9.72,2.48c-4.8,4.32-10.84,7.3-18.57,10.28a62.53,62.53,0,0,0-15.46,8.78c-4.74-2-12.56-5.76-15.79-9.69-2.34-2.85-6.77-5.24-10.65-7.34-4.19-2.27-7.79-4.21-7.84-6.09-.07-2.17,2.39-4.9,4.36-7.07,1.44-1.59,2.57-2.84,2.48-3.58A2.8,2.8,0,0,0,158,256.57Zm-25.44,1.9c-3.68.23-7.22.37-10.18.33-7.37-.08-12.32.61-16,2.26a13.24,13.24,0,0,0-4.38,3c-.94-.09-3.58-.4-11-1.43L85.9,262c-2.72-.37-5.06-.68-7.15-1,7.86-4,14.85-7,18.61-7.88,3.43-.81,7.66-1.5,11.74-2.16,8.65-1.4,16.8-2.73,18.74-5.26h7.89c-1.88,3.58-4.26,7.76-4.3,7.83a.16.16,0,0,0,0,.13Zm-1.64-18.74s-3.9-3.39,3.23-10.22c5.49-5.25,7.26-8.56,7.7-11.07,1.08-.11,2.51-.31,4.37-.57,3.46-.48,7.76-1.07,11.63-1.33a12.4,12.4,0,0,1,10.2,3.78L144.56,233a.48.48,0,0,0-.13.09c-.24.24-6,5.88-6.4,7.75a29.9,29.9,0,0,1-1.95,4.2h-7.85l2.71-5.08A.15.15,0,0,0,130.9,239.73ZM97.22,206.84,118.13,203c8,1.45,23.37,4.38,25.26,5.33,1.2.61.16,2.15-.95,3.78-1,1.44-2,2.93-1.87,4.19a8.26,8.26,0,0,1,0,1.65,1.7,1.7,0,0,1-.41,0,39.34,39.34,0,0,0-5.86.59c-6,.79-16.12,2.11-21.32,1.47-6.89-.84-21.63-3.43-24.76-4l3.24-2C97.78,210.22,97.52,207.66,97.22,206.84Zm30.83-9.61h0l7.11-5,.52.11.13,0a38.59,38.59,0,0,0,7.27.55c.59,0,14.35.78,17,.72a8.05,8.05,0,0,1,2.47.42,25.56,25.56,0,0,0,7.94.95c3.95,0,6.16.09,8.5.23l.76,0a49.38,49.38,0,0,1-8.28,3.59,24.75,24.75,0,0,1-3.61.87c-2.06.35-3.28.64-6.44,2.84-2.37,1.64-4,2.82-5.27,3.78s-2.44,1.8-3.74,2.64c-1.89,1.21-7.42,4-10.08,5.28a19.63,19.63,0,0,1,1.33-2.15c1.2-1.78,2.33-3.45.76-4.24-2.32-1.18-21.56-4.7-25.23-5.36Zm-.46-.57c-1.89-.08-9.26-.39-17.23-.79l4.87-2.89c3.07-1.82,8.42-2.74,12.47-2.15,2.32.33,4.55.8,6.51,1.22Zm65.84-9.45a8.28,8.28,0,0,0,.85-.29c1.9-.76,6-1.22,9.56-1.62,2.09-.23,4-.45,5.59-.72,3.86-.68,42.29-6.54,48.07-7.42v12l-6.92-.2a150.59,150.59,0,0,0-21.88.88c-8.42.87-18.66,1.87-18.76,1.88l-.49,0-1.13,2.66c-.11.07-.87.47-4,.61-2.5.11-6.95.13-11.29.1C193.77,192,194,189.13,193.43,187.21Zm63.35-24.54.24,4.77c-8.49.1-29.75.79-38.06,3.12-4.29,1.21-8.2,3.29-12.38,5.52-5.38,2.86-11,5.86-18.33,7.63-2.31.56-4.46,1-6.49,1.48.84-.68,1.69-1.46,2.31-2,1.55-1.48,6.08-4.26,10.29-6.71h.73l-.29-.25c3.76-2.18,7.18-4.05,7.87-4.43,2.7-.44,27.59-4.53,32.85-5.81a18.28,18.28,0,0,0,9.15-5.84,22.74,22.74,0,0,1,6.23-1.82c1.5-.26,3.1-.59,4.8-.95a64.16,64.16,0,0,1,9.3-1.51c2.9-.08,14.56-1.66,19.4-2.34-1.4,1.67-2.1,3.25-2,4.58a6.78,6.78,0,0,1-.07,1.54l-25.57,2.86Zm-127.89-2.31c-2.29.5-8.91,1.89-12.59,2.22a121.06,121.06,0,0,1-12.6,0l-4.55-8.28,21.09-4.91C117.15,153,120.34,157.16,128.89,160.36Zm-29.79-6.5.79-6.54,8.9-8.89,11.69-2.65c1.68,3.54,3.35,9.92.3,13ZM93.58,152c-1-2-1.94-14.68-2.1-16.93,13.32-1.54,23.84-3.64,26.49-4.19a16.17,16.17,0,0,0,1.63,3.32c.22.34.45.76.69,1.23l-12.36,2.8-9.19,9.16-.81,6.75-4.11.62-.27,0A5.93,5.93,0,0,0,93.58,152Zm2.64-29.18-6.5-6.92c5.39-1.4,9.06-2.57,10.44-3l14.47,8.09,0,0a23.35,23.35,0,0,0,2.79,1,24.63,24.63,0,0,1-.58,3.4A4.72,4.72,0,0,0,117,128c.09.27.19.57.29.89s.33,1,.53,1.54c-2.2.46-12.8,2.61-26.36,4.17l4.78-11.82ZM88.1,106.09l11.57,6.47c-1.2.4-4.83,1.56-10.26,3l-7.79-8.29C83.8,106.88,86,106.49,88.1,106.09Zm-6.77.85-2.56-2.72-1.88-3.49c6.08,1.4,6.49,2.63,6.49,2.64v.09l.13.07,4.1,2.29C85.55,106.21,83.45,106.59,81.33,106.94Zm395.81-14.8c.9,1.2,1.84,2.45,1.66,4.4-.58-.12-1.18-.22-1.81-.32a75.93,75.93,0,0,0-10.63-.87,6.36,6.36,0,0,1,1.81-3.78,8.84,8.84,0,0,1,2.17-1.11,9.18,9.18,0,0,0,4.06-2.64,13.65,13.65,0,0,1,1.42-1.46C474.87,89.12,476,90.64,477.14,92.14Zm51.18,3.31c.92,1,1.69,1.7,2.38,2.35,1.56,1.48,2.44,2.33,3,4-1.94-.08-8.45-.32-14.58-.27a66.35,66.35,0,0,1-10-.59c-1.29-.16-2.62-.32-4.29-.45a51.93,51.93,0,0,0-5.65-.09,30.14,30.14,0,0,1-7.76-.53c-1.9-.42-3.61-.94-5.42-1.47s-4-1.18-6.25-1.68c.25-2.1-.73-3.41-1.69-4.67-1.33-1.76-2.58-3.42-.72-7,1.84-1.45,3.69-2.65,3.72-2.67l21.57-15.83c5,2.64,8.83,5,11.75,6.89,7.9,5.21,10.63,8.48,10.66,8.52l.14.19c2.11,2.86,3.15,5.29,3.06,7.22a4.39,4.39,0,0,1-.88,2.47C526.77,92.78,526.36,93.39,528.32,95.45Zm4.82,18.38c3.84-1.43,15.43-2,25.23-1.93a42.52,42.52,0,0,1,12.48,2,42.63,42.63,0,0,0,2.79,5.5,93.76,93.76,0,0,0,8.54,11.93l-1.15.36c-2.19.65-4.36,1.17-6.27,1.64-6.08,1.47-10.5,2.55-6.92,5.61a3.32,3.32,0,0,1,.38.37,85.23,85.23,0,0,0-13.75,3.6l-10.42-5.81-8.32,7.69-4.56-1.23-6-1.07c0-.75.16-4.15,1.14-5.85.56-1,1.89-1.21,3.91-1.58a27.64,27.64,0,0,0,6.25-1.7c5.11-2.17,5.4-4.73.82-6.36a34.15,34.15,0,0,0-11-1.45c-2.7.06-4.79.45-5.88,1.11-2.36,1.4-8.51,3.47-10.12,4-1.38-.59-2.79-1.12-4.07-1.59l-2.12-.81a9.35,9.35,0,0,1,2.15-1l11.15-3.67c.17,0,.2-.15.08-.23L514,121.18a.86.86,0,0,0-.34-.1,1.38,1.38,0,0,0-.41,0c-.59.12-11.39,2.44-17,4.91-1.07-.22-2.22-.43-3.42-.64a22.15,22.15,0,0,1,5.67-2.93,38.29,38.29,0,0,1,9.31-2.25c1.87-.27,4-.58,6.75-1.19,4.53-1,9.23-2.21,13.18-3.4l.66-.2C530.19,114.86,531.8,114.32,533.14,113.83Zm-.89-.24a42,42,0,0,0,3.66-2.6,33.82,33.82,0,0,1,4.35-3c2.26-1.24,4.75-1.27,7.91-1.3a41.6,41.6,0,0,0,8-.63c1.42-.28,2.65-.55,3.73-.78a70,70,0,0,1,11-1.68c-1.85,2-1.93,5.3-.19,9.76a43.72,43.72,0,0,0-12.4-1.84c-9.26-.06-21.59.43-25.89,2Zm79.55,69.24c-4.36-2.08-13.94-7-14.93-8.93,4.42.52,8.94,1.47,12.6,3.49.78.43,1.65.94,2.58,1.47,1.22.7,2.57,1.48,4.07,2.31C614.8,181.77,613.28,182.32,611.8,182.83Zm5.14-1.21c2.66,1.45,5.79,3.07,9.51,4.75l-6.06,2.47c-4.76-1.48-9-2.89-12.12-4.07.83-.33,1.89-.68,3-1.06C613.12,183.1,615.18,182.41,616.94,181.62Zm-6,1.5-.53.17c-1.15.39-2.25.76-3.11,1.1a80.54,80.54,0,0,1-19.83-11.26l2.17.15c1.89.13,3.92.26,6,.48C596.45,176.1,608.39,181.91,610.94,183.12Zm-4.44,1.6c-2.94,1.18-9,3.07-10.68,3.58-2.51-1.19-4.72-2.48-6.72-3.65a51.43,51.43,0,0,0-6.12-3.22,44.26,44.26,0,0,1-7.31-4c-1-.63-2-1.27-3-1.88-2.13-1.24-5.33-1.57-7.63-1.63,1.33-.83,4-2.52,6.66-4.2l1-.64A47.73,47.73,0,0,0,586.08,173,80.31,80.31,0,0,0,606.5,184.72Zm-43-10.79c-.46,0-.82,0-1,0l-16.32-5.15c3.51-.39,14.22-1.93,18.45-6.26,5,1.15,9,2,12.55,2.63C575.06,166.65,568.39,170.87,563.49,173.93Zm-201.73,95.9a68.41,68.41,0,0,0-.85-7.59c2.61-.58,15.6-3.38,23.34-3.51,1.69,0,3.82,0,6.23,0,2,3.79,5,9.29,8.59,15.14L385.29,276c-4.23.1-15.4,0-17.66-1.34l-.18-.11a17.72,17.72,0,0,0-5.75-2.5A20.76,20.76,0,0,0,361.76,269.83Zm-10,.74c-8.95-.88-13.73-2.27-15-2.68l3.68-8.54s0-.13.09-.3a79.91,79.91,0,0,1,10.21,1.48c2.56.7,7.27,1.52,8.71,1.76a67.62,67.62,0,0,1,.83,7.58c0,.63,0,1.25,0,1.87C358.26,271.33,355.57,271,351.8,270.57Zm8.44,2a27.26,27.26,0,0,1-2.19,8.1c-2.65-.21-12.21-1-19.6-2.27a47.1,47.1,0,0,1-12.14-3.51c7.33-2.47,9.53-5.07,10.17-6.2a80.25,80.25,0,0,0,15,2.63A76.72,76.72,0,0,1,360.24,272.53ZM136.73,125.13c8.72.93,18.29,1.56,26.12,1.92-.76,1.29-2.42,4.81-.28,8.3a21.58,21.58,0,0,0,3.63,4.17c2,1.94,3.62,3.5,3.09,5.71-14.53-3.17-25.35-6.14-29.88-8.19a9.25,9.25,0,0,1-4.85-5.62A5.62,5.62,0,0,1,136.73,125.13Zm-18.07-4.36,18.36-2,26.27,2.68-3.87,4.32C144.12,124.94,126.27,123.27,118.66,120.77Zm112,1.94,9.93-4.18c2.55.75,4.55,1.34,5.59,1.67,2.36.76.56,3.26-1.94,5.81Zm13.18,3.71c-.83.84-1.72,1.67-2.54,2.43-1.11,1-2.17,2-2.88,2.83-2.31,2.54-9.59,4-12.82,4.58-1-.11-2-.23-3-.36l-17.8-2.28L229.87,123Zm-13.94-3.94-4-1.48,9.86-3.9,3.21,1,.89.26Zm-.75.32L219,127l-4.71-1.48,10.75-4.25Zm-10.86,4.57-14.56,6.12L194,132.25a10.63,10.63,0,0,1-4.27-1.29l18.35-6.8Zm-25.66,5.92L221.17,137l1.44.17c-2.35,1.25-7.86,4.5-9.12,8.09-1.21,3.41-2.54,3.72-2.66,3.74h0l-.34-.13-.08,0a62.18,62.18,0,0,0-9-1c-5.67-.3-9.33-.3-12.28-.29-5.61,0-8.74,0-18.76-2.16.75-2.44-1-4.17-3.09-6.15a21.49,21.49,0,0,1-3.6-4.13c-2.09-3.37-.52-6.79.23-8.08,2.42.11,4.66.19,6.63.25,9.33.26,14.32,2.75,16.48,4.22A13.49,13.49,0,0,0,192.6,133.29ZM170.17,146c8.31,1.77,11.89,2,16.24,2.08l-10.85,5.28c-4.41-.64-8.25-1.23-9.47-1.41A21.55,21.55,0,0,0,170.17,146Zm17.54,2.09h1.18c2.92,0,6.54,0,12.15.29a62.18,62.18,0,0,1,8.48.89c-2.15.87-10.18,4.15-16,7.16a94.15,94.15,0,0,0-9.54-1.86c-2.36-.32-4.93-.69-7.38-1.05Zm22.73,1.38c3.41.83,3.81,2,4.25,3.24a5,5,0,0,0,1.09,2,9,9,0,0,0,3.06,2.08A87.86,87.86,0,0,1,211.1,161c-.83-.27-1.71-.52-2.65-.75-3.12-.76-5.82-1.48-8.43-2.17-2-.52-3.8-1-5.63-1.46C200.33,153.54,208.65,150.15,210.44,149.43Zm.66,12.22c6.38,2.28,9.28,5.64,10,6.52-9,1.55-18.67,3.14-18.83,3.17l-.2,0-.13.07c-.29.16-3.72,2-7.63,4.27L186.53,169l.25-.06c6.18-1.47,12.09-2.9,16.89-4.34A56.49,56.49,0,0,0,211.1,161.65Zm.82-.39a86.25,86.25,0,0,0,7.7-4.23c2.35.82,5.4,1.17,9.6,1.66h.13c5.93.69,12.25,1.32,14.07,1.49a17.43,17.43,0,0,1-8.39,5.36c-2,.49-7.19,1.43-12.84,2.42C221.5,167.07,218.51,163.61,211.92,161.26Zm17.91-3h-.13c-6.88-.8-10.33-1.2-12.83-3.82a4.77,4.77,0,0,1-1-1.89c-.44-1.25-.87-2.45-4.09-3.35.73-.3,1.88-1.18,2.86-4,1.26-3.58,6.86-6.81,9-7.95a197.8,197.8,0,0,0,41.58,0l18-1.85c3.3,4.16,7.28,8.78,9.48,9.94a6.65,6.65,0,0,1,1.37,1,34.39,34.39,0,0,0-9.24,6.62c-4.22.59-16.91,2.33-19.79,2.41a64.77,64.77,0,0,0-9.79,1.57c-1.67.34-3.26.67-4.71.93a25.41,25.41,0,0,0-6.58,1.89C242.37,159.6,235.9,159,229.83,158.26Zm49-30.17,4.79-1c2.05.84,4,1.55,5.83,2.12a81,81,0,0,1-7.94,2.41C280.17,129.9,279.17,128.54,278.84,128.09Zm1.69,3.82c-4.45,1.05-11.17,2.23-13,2.55l-2.56-2.37,2.05-2.38,10.83-1.45C278.18,128.75,279.18,130.13,280.53,131.91Zm-25.74-17.66,8.86-.8c1.71,1.42,3.67,3.1,6.14,5.23l1.63,1.4a32.25,32.25,0,0,0,3.64,2.68,95.73,95.73,0,0,1-16.53-.45c-5-.7-4.38-3.46-3.87-5.66A3.82,3.82,0,0,0,254.79,114.25Zm39.53-12.91c-1.35.06-4.94.23-9.27.46l-.42-6.9c2.88,0,6,0,9.71-.1A23,23,0,0,0,294.32,101.34ZM286.61,105l-8.49.79-2.66-3.06c2.8-.18,5.8-.36,8.72-.51Zm3.58,4.12a14.63,14.63,0,0,1-3.27.71c-.86,0-2.63.25-4.83.54l-3.68-4.25,8.48-.79Zm-2.28-3.88,7.43-.7a5.14,5.14,0,0,0,1.77,1.93c-1.29.58-3.74,1.61-6.05,2.38Zm-12.56-2.85,1.59-7.47h6.7l.41,7C281.26,102,278.24,102.18,275.35,102.37Zm5.74,8.11c-6.09.84-14.68,2.18-16.8,2.52a75.66,75.66,0,0,0-9.59-6.9c-.21-.12-.43-.27-.67-.44,1.52-.26,6-1.06,9.17-1.83a111,111,0,0,1,11.23-1Zm-8.69,9.41-1.63-1.39c-2.45-2.1-4.39-3.77-6.09-5.18,3.17-.5,19.24-3,22.26-3.15,3.19-.15,8.94-2.62,10.71-3.41,4,2.32,4.54,4,4.54,4.07v0l4.07,7.54h-4.48l-12.32,3.91-13.22.4A32.52,32.52,0,0,1,272.4,119.89Zm17.42,2.79,12.28-3.91h4.38l.08.16,3.88,11.67,0,0,7.84,8.6-7.8,1.3-2.1-4.93-11.06-5.31-1,.38c-3.08-.73-12.09-3.12-19.46-7.59Zm82.45,9.47.05,0,.11,0a17.35,17.35,0,0,0-4.59,3.32c-2.35-.85-10.7-3.7-17.7-4-6.82-.31-17.38-1.81-20-2.19l4.37-2.25,6.53-.58,4.56-6,13.16.77-.08-.11a33.19,33.19,0,0,0,9-2.61l8.06,3a13.15,13.15,0,0,0-2.58.8c-2.52,1.32-5.6,5.7-5.73,5.89l-.05.07ZM419,121c-.1-.17-.43-.32-1.08-.47a5.28,5.28,0,0,1-2.58-2.29l-.46-2.24c1.48,0,4-.11,6.35,0a98,98,0,0,1,11,2.47l1.67.43c.12,2-1.73,3.93-4.67,5.72-3.72-.5-7-.87-7.26-.89l-5.41-.5c-.12-.14-.24-.49.75-1l.63-.34C418.65,121.54,419.15,121.28,419,121Zm67.35-17.77a24,24,0,0,1-2.54,3.59l-9.59-1.12a39.34,39.34,0,0,0,3-3.63Zm-8.89-1.49a12.74,12.74,0,0,0,2.25-4.62c2.05.47,3.89,1,5.69,1.55.89.26,1.79.53,2.72.79a21.08,21.08,0,0,1-1.57,3.43Zm6.05,5.42a21,21,0,0,1-3.78,3.33c-.37.26-.73.52-1.08.79L469.87,110c.56-.49,2.22-2,4-3.93Zm-4.3,4.59.86.13c.14,0,13.23,1.8,19.13,3.2a28.92,28.92,0,0,1,9.9,4.44l.94-.14a29.48,29.48,0,0,0-10.32-4.61c-6-1.42-18.79-3.16-19.33-3.23l-.77-.12c.33-.25.67-.5,1-.74a23.47,23.47,0,0,0,8.4-11c.62.17,1.25.33,1.9.47a24.29,24.29,0,0,0,3.6.53c1.2.55,11.26,5.26,13.07,7.63,1.68,2.21,4.7,3.49,7.37,4.62l1.53.65c2.38,1.07,5.18,2.49,6.08,3-2.78.75-5.73,1.47-8.61,2.1-2.72.59-4.79.89-6.62,1.16a39.87,39.87,0,0,0-9.63,2.33,23,23,0,0,0-5.89,3c-3.37-.58-7.1-1.14-10.77-1.7-3.49-.53-6.77-1-9.59-1.51A28.36,28.36,0,0,1,479.21,111.75Zm75.95,31.52a81.27,81.27,0,0,1,13.41-3.55c3.18,4.49-.37,16.16-4.14,21.45l-1.06-.25q-2.77-.66-5.5-1.23l1.86-6.41-17.24-2.35,2.12-3.54ZM341.62,252.57c-.07-1.59-1.68-2.39-3.72-3.4a24.22,24.22,0,0,1-3.78-2.19,176,176,0,0,0,21.66-4.26c1.5,7.07,2.78,13.61,3.6,18.8-1.85-.32-5.71-1-7.85-1.6a81.42,81.42,0,0,0-10.76-1.56A22.33,22.33,0,0,0,341.62,252.57Zm-66.53-75.33c-5.43-.64-11.63-1.33-13.17-1.29a14.83,14.83,0,0,0-3.24.38l-.41-7.63h1.37l1.48,0c5.63.21,12.52.42,18.49.44C278.83,170.57,277.05,173.71,275.09,177.24Zm4.91-3.09a13,13,0,0,0,1.48,3.87l-3.39-.41C278.76,176.39,279.4,175.22,280,174.15Zm-18.17,2.29h.1c1.5,0,7.39.66,12.88,1.31-2.32,4.18-4.84,8.84-6.21,11.67l-9.86-.26,0-12.27A10.48,10.48,0,0,1,261.83,176.44Zm23.65-18.56c-.13-1.41.73-3.11,2.42-4.9l10.08-1.5a57.67,57.67,0,0,1,3,6l-15.57,1.74A6.32,6.32,0,0,0,285.48,157.88ZM440.38,129c1.16,3.94,2.85,10.09,2.65,10.52a3.39,3.39,0,0,1-.76.59c-5-.87-11-1.72-18.4-2.38-9.79-.89-17.22-1.43-23-1.71,2.94-1,6-2,9.5-3,6.89-2,15.05-4.66,20.27-7.75,2,.28,3.91.58,5.45.87,4.73.89,4.29,2.77,4.26,2.85A.06.06,0,0,0,440.38,129Zm39.29,9a1.76,1.76,0,0,1,.54-2.24,5,5,0,0,1,1.7-1c1.53.9,7.14,4.55,4,7.5-1.33-.21-2.74-.47-4.23-.8-1-.23-2-.46-3-.71C480.2,139.46,479.93,138.71,479.67,138Zm23.24.43,5.49-.2a4.94,4.94,0,0,1,.35,1c.32,1.42-1.82,4.72-3.93,7.56-2.18-.45-4.13-.88-5.64-1.27,1.22-1.94,2.52-4.08,3.44-5.8A2.18,2.18,0,0,0,502.91,138.43ZM538,156.38c-2.09-.29-4.17-.56-6.23-.83l2.43-5.29,6.92.94Zm4.23-5,16.24,2.22-1.73,5.89c-6-1.21-11.88-2.13-17.63-2.93Zm-11.58,4.06-1.16-.15c-3.35-.43-6.61-.85-9.83-1.3l1.52-3.9.78-1.47,11.14,1.52Zm-12.09-1.61c-2.2-.32-4.38-.65-6.54-1,.48-.7,1.35-2,2.29-3.67l5.69,1ZM511,152.61c-1.94-.33-3.86-.69-5.78-1.08l-2.49-.48c.64-.76,1.73-2.1,2.87-3.61,2.59.53,5.3,1,7.7,1.48C512.32,150.56,511.44,151.9,511,152.61Zm-12-6.65c1.58.41,3.52.84,5.59,1.27-1.15,1.52-2.25,2.86-2.9,3.64q-2.78-.48-5.35-.78C496.79,149.29,497.8,147.74,498.92,146Zm-3.76,4c-3.23-.35-6.25-.51-9.2-.55a4.51,4.51,0,0,1,.58-6.59l2.46.35c3,.43,5.24.73,6.11,1.48a9.4,9.4,0,0,0,2.8,1C496.75,147.54,495.7,149.16,495.16,150Zm6.39-10.34c-.91,1.67-2.18,3.75-3.37,5.65a7.23,7.23,0,0,1-2.06-.77,5.15,5.15,0,0,0-1.82-.85c5.19-4.77-2.76-9.62-4.68-10.67,1.61-.25,2.93-.4,3.47-.46C494.6,133,503.51,136,501.55,139.63Zm-8.23,3.79c-1.13-.24-2.49-.43-4-.64-.76-.1-1.54-.21-2.36-.34,3.42-3.26-2.84-7.12-4.27-7.94a42.24,42.24,0,0,1,5.95-1.36C490.22,134,498.32,138.76,493.32,143.42Zm-12.14-1.58c1.5.34,2.95.6,4.3.82a4.63,4.63,0,0,0-.69,6.75c-4.39,0-8.64.2-13.15.44l-.88.05a88.73,88.73,0,0,1,7.53-8.74C479.23,141.39,480.19,141.62,481.18,141.84ZM469.51,150c-2.46.13-5,.25-7.69.33a65.91,65.91,0,0,1-1.14-6.62l3.07-.67a.67.67,0,0,0,.24-.11s2.09-2.32,4.51-4.54c1.31.43,4.72,1.51,8.83,2.57A93.19,93.19,0,0,0,469.51,150Zm1.3,8.95L487.54,161l-1.07,3.74-14.78-1.16-4.12-.31a23.33,23.33,0,0,0-1.91-3.25,21,21,0,0,1-2.49-5c1.79.27,4.66.69,7.83,1.05l-.62,2.62C470.36,158.77,470.54,158.87,470.81,158.91Zm.76-.38.56-2.37,1.62.16c3.31.31,8.49,1.12,14.52,2.08l-.6,2.1Zm-69.13,62.38-.78-4.06-6.47-20.41,8.61.26c-.63,4.18,3.78,23.51,5.51,28.36l-7,.64.1-4.76Zm-98.52-18.15c.28-.44.53-.83.74-1.19l22.61-1.85,8.1-.14.87,5.6-35.37,2.62c1.15-2,2.12-3.59,2.81-4.66l.59-.38Zm15.56-26.65a22.53,22.53,0,0,1-1.85-3.82L338.8,169l2,10.71-2.68.19c-1.66.12-3.55.26-5.85.4-2.68.17-5.94.52-9.72.94-2,.21-4,.44-6.12.65l3.11-5.75ZM410,153.91a23.63,23.63,0,0,1,1.92,3.76v4c-5.81-.6-7.93-.88-12.25-1.6-6.3-1.06-13-2-20.82-1.09-.72-.56-1.48-1.17-2.27-1.84l.92-.21c5.05-1.15,10.44-2.21,15.64-3.1C398.45,153.5,403.72,153.68,410,153.91Zm-13.2-.67c4.29-.67,8.37-1.21,11.91-1.55l1,1.76C405.15,153.28,400.94,153.14,396.77,153.24Zm89.36,28.68c-2.37-.12-4.93-.2-7.37-.24l1-10,9,1.4Zm3.82-8.68,5,.78,1,.16,1.56,8.66c-2.39-.19-4.73-.39-6.79-.6-1-.1-2.2-.18-3.43-.26Zm-2.57,17.5-7.6-.73h-.72l-.31-7.82c2.43,0,5,.12,7.34.24Zm-17.83-22a27.44,27.44,0,0,0-1.75-5l3.73.28,14.8,1.17-1.69,5.88C479.8,170.31,474.69,169.53,469.55,168.76Zm.29,1.39,8.79,1.33-1.07,10.17c-3.23-.05-6.11-.05-7.85-.05A28.92,28.92,0,0,0,469.84,170.15Zm-.25,12c1.7,0,4.65,0,8,.06l.29,7.84H466.49A29.64,29.64,0,0,0,469.59,182.11Zm-3-1c-3.27-.1-11.39-.34-20.2-.54l.19-7.56,20.49-.57A28.19,28.19,0,0,1,466.57,181.14ZM350.28,213c-.68-2.78-1.34-5.48-2-8h21c.53.89,1.14,1.84,1.77,2.83s1.35,2.09,2,3.22Zm23.18-1.45a30.73,30.73,0,0,1,3.18,7.25c.1.35.19.71.29,1.09l-24.61,1.61c-.63-2.69-1.27-5.34-1.9-7.93Zm-39.65-29.92c1.76-.11,3.27-.22,4.62-.32l2.58-.19v.07c.06.22,1.94,7.41,4.51,17.73l-9,.15ZM335.29,199l-7.45.13-.59-5.6-1.09-11.33c2.41-.25,4.54-.46,6.32-.57h.13Zm19.18-30,.24.09.84.33L361,182.67a22.84,22.84,0,0,1-7.59-1.41A24.4,24.4,0,0,0,342,179.67l-2.52-13.53c1-.18,6-1,10.51-2Zm-1.3-5.14c1-.33,2.73-.91,5-1.63,1.58-.17,3.36-.26,5.29-.36h.21l1.58.8c3.36,1.68,6.86,3.44,7.9,4.38,1.61,1.45,3.71,6.73,4.67,9.3l-20.65-8.1Zm8.36,20.11.52,1.26c0,.09,2,6.23,3.93,11.56l-19.2,1.93c-2.6-10.32-4.5-17.53-4.55-17.73l0-.07a18.17,18.17,0,0,1,9,1.32A29.48,29.48,0,0,0,361.53,184.05Zm-23.95,29.81-42.79,4.23c1.66-2.72,3.4-5.69,4.92-8.3l.82-1.4,35.79-2.65Zm-.08-8.77-.87-5.53,9-.15q.58,2.39,1.23,5Zm9.53-.15c.64,2.58,1.3,5.3,2,8.1l-10.14.71-1.27-8.11Zm1.13-.6c-.43-1.73-.84-3.41-1.25-5l19.26-1.94c.95,2.64,1.86,5,2.47,6.21.12.23.25.48.39.73Zm15.09-19.13-.48-1.16c3,0,6.59-.22,11.46-.49l5.49-.31,1.8-.09a7.73,7.73,0,0,1,2.75,4,45.05,45.05,0,0,0,2.79,6.54l-19.87,3C365.27,191.41,363.28,185.3,363.25,185.21Zm16.16-3.31-5.49.31c-5.34.3-8.93.5-11.71.49L357,170.07l29.14,11.48Zm-.17-4.92c-.8-2.21-3.18-8.42-5-10.07-1.1-1-4.49-2.69-8.05-4.48l-1.13-.56a83.55,83.55,0,0,0,11.11-1.19c.62-.11,1.23-.22,1.83-.3l.09.06c2.77,2.14,4.79,3.7,6.14,6.46,1.26,2.6,5.91,4.76,11.34,7.3a97.82,97.82,0,0,1,12.2,6.43c-5.47.17-11.17.41-17.4.71Zm31.22,3.57c-.2-.14-.41-.29-.63-.43a100,100,0,0,0-12.5-6.58c-5.22-2.43-9.68-4.5-10.83-6.84-1.4-2.85-3.56-4.53-6.25-6.61a54.25,54.25,0,0,1,10.68.06l27,12.82a1.21,1.21,0,0,0,.45.08h27l-.2,7.52c-6.54-.14-13.34-.25-18.73-.25S415.87,180.4,410.46,180.55Zm.25,7.24c-4.9-1.08-8.68-2-9.48-2.18l-7.78-3.05c5.67-.27,10.92-.48,16-.63C411.58,183.94,411.61,185.92,410.71,187.79Zm-11.43-1,.16,0c.39.09,4.74,1.15,10.44,2.4a31.21,31.21,0,0,1-3.12,3.51,12.91,12.91,0,0,0-2.82,3.47l-8.92-.27-3.93-12.38ZM409,193.1a31.36,31.36,0,0,0,3.05-3.43c6.78,1.46,14.88,3.07,20.48,3.72,6.85.8,11.31,2.52,16.48,4.54l-1.18,9.5H427.72l-6.84-11.81a.78.78,0,0,0-.67-.2l-13.73.7A14.31,14.31,0,0,1,409,193.1ZM433.36,192c-5.46-.63-13.65-2.27-20.41-3.74a5.07,5.07,0,0,0-.95-6.42c4.88-.12,9.64-.19,14.48-.19,5.36,0,12.14.11,18.66.25l-.17,6c0,.05,0,.09.09.14l3.22,2.32,4.34,3.15-2.7,2.81A63.05,63.05,0,0,0,433.36,192Zm12.84-4.14.14-5.93c8.58.19,16.52.43,19.91.54a29.66,29.66,0,0,1-3.16,7.52H449.15Zm-.27-15.32H418.62l-25.7-12.18c1.85.23,3.67.52,5.5.83,6,1,8.17,1.22,20.19,2.42l11.4,1.15c9.45.95,23,2.86,36.62,4.88.15.76.27,1.54.36,2.32Zm-69.35-13.28-1.64.28a83.77,83.77,0,0,1-11.62,1.15c3.44-1,7.34-2.13,11.23-3.09C375.25,158.22,375.93,158.77,376.58,159.28Zm-15.44.58a17.75,17.75,0,0,1-3.07-1.93,6,6,0,0,1-1.35-2.76c-.13-.41-.25-.82-.4-1.2l12-1.36h.08l2-.36a11.13,11.13,0,0,0,2.95,4.28C369.05,157.56,364.81,158.76,361.14,159.86Zm-4.75-2.54a3.43,3.43,0,0,0,.62.8,17.82,17.82,0,0,0,3.19,2l-3.39,1.05a23.81,23.81,0,0,0-3.61.7c-.47.14-1,.27-1.53.41l-3.61-3.94Zm-8.72.61-2.4-2.61,9-1.12.93-.1c.14.37.26.76.38,1.15a11.09,11.09,0,0,0,.57,1.62Zm6.34-4.16-9,1.11-.71-2.65c1.88-.15,5.25-.39,8.05-.36a2.72,2.72,0,0,1,2.66,1.78Zm-9.32,4.53-8.28,1-1.31-2.78,7.21-.87Zm.38.43,3.84,4.22c-3.83.84-8.15,1.62-9.89,1.92l-2.4-5.09Zm-22,23.85,1.87-.21L326,193.63l.58,5.6L305,201a11.25,11.25,0,0,0,1.49-4.08c.06-.28.12-.59.19-.92.46-2.1,6.93-10.3,8.76-12.6C318.12,183.13,320.7,182.84,323.09,182.58ZM298.47,209.7c-1.59,2.7-3.4,5.79-5.12,8.59-1.86.46-13,3.11-17.53,2.77A61.12,61.12,0,0,1,268.2,220a207.75,207.75,0,0,0,33.41-15.6C300.75,205.81,299.68,207.64,298.47,209.7Zm-4.07,9,43.26-4.28.55,4.3c-.64.72-6.31,7.11-7.95,12H286.17c1.41-2.18,2.92-4.19,4.24-5.94C291.53,223.28,292.93,221.12,294.4,218.72Zm45.07.15a.18.18,0,0,0,0-.13l-.57-4.41,10.19-.71c1.32,5.49,2.69,11.3,4,17.08H331.6C333.3,225.68,339.4,218.94,339.47,218.87Zm13,3.17,24.63-1.61c.83,3.15,1.82,7.06,2.62,10.27H354.48C353.82,227.81,353.14,224.91,352.46,222Zm25.47-3.38c-1.16-4.24-3.53-7.91-5.59-11.11a46.84,46.84,0,0,1-2.47-4.08c-.61-1.2-1.53-3.58-2.49-6.22l19.95-3c.68,1.35,1.23,2.37,1.34,2.57l-.12,2.33a0,0,0,0,0,0,0l6.74,27,1.31-.08-6.81-27,.11-2.34a.08.08,0,0,0,0-.07c0-.07-3.48-6.35-4.42-9.62a8.07,8.07,0,0,0-2.65-4l6.37-.33.49.2,10.68,34,.76,4-.11,4.87-20.72,1.91C379.5,224.58,378.63,221.21,377.93,218.66Zm28.36-22,13.52-.7,6.8,11.8a.75.75,0,0,0,.62.22h20.22c-.58.58-1.52,1.68-1.45,2.63,0,.11,0,.23,0,.35.16,1.22.35,2.6-7.42,3.21l-1.34.1c-6.9.53-11.08.86-12.4,1.79a.74.74,0,0,0-.31,1.06c.3.52.76,1.43,1.22,2.41l-15,1.78C408.73,213.77,405.75,199.74,406.29,196.68Zm19.77,23.45c.64,1.33,1.25,2.68,1.52,3.25l-15.69,1.44c-.26-.7-.56-1.69-.9-2.89ZM449.3,222l-33.73,9.8c-1.56-2.67-2.87-5-3.45-6.38Zm-20.44,1.26c-.51-1.09-2.27-4.92-3-6.26a.4.4,0,0,1,.14-.6c1-.72,5.44-1.06,11.55-1.54l1.35-.1c8.87-.69,8.63-2.49,8.45-3.8,0-.11,0-.23,0-.33-.08-1.19,1.74-2.76,1.76-2.78a.19.19,0,0,0,.07-.11l1.13-9.35c2.55,1,5.23,2,8.43,3a29.37,29.37,0,0,0,2.89,18.88l-9.05.86ZM459,199.7c-2.85-.92-5.33-1.88-7.72-2.8l-.39-.15,3-3.1a.15.15,0,0,0,0-.24l-4-2.88h12.9A34.8,34.8,0,0,0,459,199.7Zm5-4.92a126.39,126.39,0,0,0,13,4.41l-.54,6.1c-6-2-11-3.58-14.35-4.62A31.19,31.19,0,0,1,464.05,194.78Zm.26-.61a38.81,38.81,0,0,1,1.88-3.64h11.63l-.71,8.05C472.4,197.3,466.71,195.12,464.31,194.17Zm14,5.33c1,.22,1.85.39,2.64.49a123.65,123.65,0,0,1,15,3.24,18.08,18.08,0,0,1-3.26,7.47c-5.28-1.79-10.36-3.49-14.93-5Zm2.93,0a26.79,26.79,0,0,1-2.87-.57l.71-8.37h.6l17.52,1.68a55,55,0,0,1-1.09,10.43A124.7,124.7,0,0,0,481.21,199.47Zm7.42-8.61-1.32-8.37c1.17.07,2.28.15,3.26.25,2.13.21,4.56.42,7,.62l-.41,8.32Zm9.78,1.47,12.56,1.2A79,79,0,0,1,509.68,207l-1.35-.48c-1.34-.47-2.72-1-4.2-1.45-2.14-.72-4.46-1.42-6.82-2.08A53.42,53.42,0,0,0,498.41,192.33Zm0-.53.39-8.34,2,.15c2.87.23,5.78.46,8.36.7l1.76,8.68Zm2.51-8.69-2.15-.17-1.56-8.57c6.64,1,12,1.87,15.53,2.38l-3.52,7.05C506.71,183.57,503.86,183.34,500.93,183.11Zm-5-10.31-10.1-1.57,1.7-6,7.49.58h8.27l12.48,1.91-2.46,7.7C509.33,174.89,503.06,173.92,495.89,172.8Zm-29.59-4.53c-13.2-2-26.33-3.78-35.58-4.71l-11.38-1.14-6.31-.63v-4.12a20.54,20.54,0,0,0-1.87-3.71c3.66.14,7.76.28,12.26.33,11.47.11,16.37,1.14,21.14,2.15,1.28.27,2.61.54,4,.8a39.67,39.67,0,0,0,6.73.54,52.84,52.84,0,0,0,5.81-.33,18.38,18.38,0,0,0,1.59,2.81A24.81,24.81,0,0,1,466.3,168.27ZM460.92,157a44.33,44.33,0,0,1-11.9-.17c-1.38-.24-2.63-.51-3.95-.78-4.88-1-9.9-2.08-21.63-2.2-4.61-.05-8.65-.2-12.54-.34-.43-.75-.84-1.44-1.12-1.91l.63-.05c4.51-.38,13.68-.25,23.4-.11,7.81.11,16.67.23,24.62.12h.69A34.14,34.14,0,0,0,460.92,157Zm-2.72-6.62c-7.82.1-16.6,0-24.34-.13-10.31-.14-19.2-.26-24.06.14a268.68,268.68,0,0,0-33.78,5.5l-.72.16a10.32,10.32,0,0,1-2.77-4.18L393,148.22c3.65-.52,11-1.49,13.11-1.49h9.17a89.36,89.36,0,0,0,15.82-1.38,38.6,38.6,0,0,0,10.56-4.07c9.91,1.79,15,3.64,16.26,4.16.23,1.64.52,3.3.88,4.91Zm-35-11.52c6.95.64,12.73,1.43,17.46,2.25A37.51,37.51,0,0,1,430.6,145a87.79,87.79,0,0,1-15.27,1.33h-9.17c-2.79,0-13.07,1.45-13.51,1.51h0l-20.22,3.58c-.93-3.61,1.08-7.58,9.71-9.74,6.78-1.69,11.55-3.19,15.84-4.61C404.22,137.28,412.44,137.87,423.22,138.85Zm-34.32,0-3.38-1.54a69.62,69.62,0,0,1,9.36-.31C393,137.56,391.08,138.17,388.9,138.81Zm-.89.25c-2.11.61-4.43,1.24-7.07,1.89-6.24,1.56-10,4.14-10.84,7.49a6.28,6.28,0,0,0,.11,3.35l-2.23.39-11.85,1.35c-.55-1.19-1.47-2.08-3.67-2.1-2.91,0-6.32.2-8.26.36l-1-3.67,5.42-4,18.26-6.94.65.09c7.21,1,10.52,1.41,15.91.3.3-.06.62-.12,1-.17Zm-40.25,4.83L343,147.36l-1.73-6.46-1.71-4a109.91,109.91,0,0,1,25.09,0l1.11.14Zm-8.11,2.1,1.59,6.13-11.74,1.56-4.11-6Zm-14.54,1.29-2.76-4,16-2.08,1.14,4.39Zm-1.09.13-8.3,1-2.54-3.83,8.1-1.18Zm-9.39,1.13-15.81,2.35a25.7,25.7,0,0,0-2.72-3.78,66.64,66.64,0,0,1,13.83-5.3l2,2.71Zm-19.73-2.61a6.76,6.76,0,0,0-1.24-.86c-2.1-1.1-6-5.66-9.32-9.77l4.56-.47,8-2.94,8.77,4.23,2.09,5A70.35,70.35,0,0,0,294.9,145.93Zm.37,1.63a27.85,27.85,0,0,1,2.45,3.5l-9.29,1.38A33.54,33.54,0,0,1,295.27,147.56Zm3.81,3.76L314.9,149l3.65,5.53-16.41,2.86A56.35,56.35,0,0,0,299.08,151.32ZM316,148.81l8.31-1,5.91,8.65,1.1-.14-1.52-2.22,11.57-1.54.69,2.68-7.73.93-12.64,1.22Zm18,7.86,1.31,2.81-11.92,1.66-1.45-3.31Zm-10.41,4.92,11.93-1.66,2.39,5.08-20.62,1.22a3.83,3.83,0,0,1,.47-.69,32.76,32.76,0,0,0,3.07-3.87h2.8Zm14.72,4.66.42,2.29-21.24,3.28a9.56,9.56,0,0,1-.6-4.29C325.44,167,335.74,166.4,338.29,166.25Zm-20,10-3.17,5.83c-12.44,1.2-26.17,1.75-29.81-3.4l-.11-.16,31.29-6A23.86,23.86,0,0,0,318.28,176.22Zm-18.79,8h1.23c4.3,0,8.93-.32,13.37-.73-2.09,2.61-8.18,10.36-8.65,12.48,0,.16-.07.31-.1.46-1.24-.07-4-.23-7.83-.31-4.65-.11-10.4.24-11.79.34l-14.17-6.38.3-.62c3-.74,8.77-2.18,11.69-2.85,1-.22,1.78-.46,2.56-.7a43.19,43.19,0,0,1,10.47-1.81C297.5,184.17,298.47,184.21,299.49,184.23ZM271,191.38q.09-.25.24-.6l13.92,6.27.3,0c.07,0,6.75-.47,11.84-.35,4,.09,6.81.25,7.92.32-.35,1.7-.57,2.63-2.59,5.77l-30.51.18-15.68-1.69c2.37-1.59,4.75-2.88,6.84-4C267,195.23,270.23,193.49,271,191.38Zm.82,12.13h.08l30-.18a202.86,202.86,0,0,1-35.27,16.54l-46.11,16.48L213.37,226c5.42-2.32,30.33-13.2,37.64-20.42a35.91,35.91,0,0,1,4.7-3.86ZM267,220.45a61.93,61.93,0,0,0,8.45,1.2c.33,0,.69,0,1.06,0,4.79,0,13.17-1.88,16.37-2.64-1.37,2.22-2.67,4.2-3.72,5.58-1.36,1.81-2.93,3.89-4.39,6.15l-28.6,4-.16,0-28.5,7.67a44.91,44.91,0,0,0-6.48-5.62Zm-10.52,15,27.85-3.95a28.36,28.36,0,0,0-4.17,10l-20,2h-.06l-28.77,3.94a30.3,30.3,0,0,0-3.3-4.31Zm29.29-4.09h20.58L308.7,246c-12.2-1.5-24.83-4-27.19-4.47A28.28,28.28,0,0,1,285.77,231.32Zm21.93,0h22.41a39.93,39.93,0,0,0-.59,5.92c0,.63-.06,1.23-.11,1.82-.21,2.49-.4,4.86,2.55,7.5-2,.23-4.11.4-6.14.49a106,106,0,0,1-15.7-.9ZM330.76,239c.05-.59.1-1.21.11-1.84a39.67,39.67,0,0,1,.57-5.88h21.84c.82,3.62,1.61,7.23,2.36,10.72a174.28,174.28,0,0,1-22.25,4.36l-.17-.14C330.39,243.74,330.56,241.55,330.76,239Zm23.86-7.72h25.24c.49,2,.89,3.62,1.12,4.56l-24,5.83C356.21,238.32,355.43,234.83,354.62,231.32Zm25.83-3,29.09-2.68a73.56,73.56,0,0,0,3.55,6.64l-30.8,3.37C381.94,234.25,381.24,231.45,380.45,228.34Zm14.73,6.56,3.29,6.26-13.34,1.62c-1.36-3.25-2.52-5.95-2.61-6.17,0,0,0-.14-.08-.31Zm3.62,6.88,3.91,7.44-14,2.16c-.86-2.19-2.12-5.23-3.27-8Zm-2.31-7,16.95-1.86c1.16,2,2.42,4.06,3.61,6L399.79,241Zm19.45-2.33,9.08-2.64,5,7.54-10.38,1.26C418.44,236.59,417.13,234.44,415.94,232.43Zm10.23-3,26.76-7.78,8.91-.86a49.6,49.6,0,0,0,9.58,12.44l-29.88,4.29-6.36-.79h-.34l-3.49.42Zm35.63-26.61c4.07,2.79,13.8,9.46,22.28,15.24l-19.16,1.83A28.86,28.86,0,0,1,461.8,202.84Zm1.35-.09c8.86,2.82,24.75,8.09,40.17,13.5L485.41,218C477.05,212.27,467.42,205.68,463.15,202.75Zm30.62,8.32a17.54,17.54,0,0,0,3.4-7.5c2.16.62,4.28,1.26,6.24,1.92,1.47.49,2.84,1,4.18,1.45l2,.69a23.06,23.06,0,0,1-2.92,7.88C502.34,214,498,212.51,493.77,211.07Zm17-3a63.25,63.25,0,0,0,13.12,3.17l.91.13a82.34,82.34,0,0,1-5.91,8.53c-3.59-1.31-7.34-2.64-11.15-4A22.05,22.05,0,0,0,510.77,208.05Zm13.36,2.62a62.67,62.67,0,0,1-13.22-3.26,76.32,76.32,0,0,0,1.3-13.76l4.34.42h.16l3.59-.05c.69,1.89,4.63,12.57,5.58,14.16.23.39-.11,1.35-.78,2.62Zm-7.49-17.13-4.47-.43-1.79-8.68c1.78.17,3.35.35,4.55.53.94.13,2.14.34,3.51.6l0,.15a.06.06,0,0,0,0,0l1.72,7.75Zm-1.4-9.07c-1.29-.19-2.94-.37-4.81-.55l3.48-7q2.88.42,5.76.92L518.52,185C517.26,184.8,516.14,184.6,515.24,184.47Zm-.81-8.84,2.47-7.78h6.42L520,176.52C518.17,176.2,516.31,175.9,514.43,175.63Zm2-8.26-12.95-2-.22,0h-8.2l-7.44-.58,1.05-3.69L512.28,164l11.66,2.22-.44,1.16Zm-27.63-6.73.59-2.07c5.22.83,11.1,1.75,16.87,2.53,4.71.64,11.08,1.85,17.29,3.13l.36,1.48-11.26-2.15h-.08Zm17.74,0c-5.94-.8-12-1.76-17.35-2.6-6.31-1-11.74-1.85-15.24-2.18-4.51-.43-8.86-1.08-11-1.41-.33-1-.62-2-.89-3,3.6-.11,6.89-.28,10.09-.45,10.73-.56,19.19-1,31.77,1.56,8.13,1.66,16.24,2.71,24.87,3.83,10.66,1.37,21.75,2.81,33.23,5.55l1.45.35c-4.52,4.66-16.89,6-18.65,6.13C542.35,167.85,518.8,162.31,506.54,160.66ZM544,147l-7.29-2,7.66-7.08,9.38,5.24Zm-.52.36-2.08,3.44-7-.95,2-4.39Zm-10.16,2.34-11.1-1.51,2.81-5.28,5.73,1,4.64,1.25ZM524,142.54l-3.83,7.15c-1.77-.3-3.69-.64-5.65-1,1.78-3.18,3.69-7.35,3.6-10.53a4.5,4.5,0,0,0-.29-1.51l7.81-.71a2.13,2.13,0,0,0-.46.54C524.12,138.38,524.05,142.19,524,142.54Zm-6.34-6.31c-1.05-2.27-3.76-3.95-6.7-5.28,1.61-.53,7.85-2.62,10.31-4.09a11.72,11.72,0,0,1,5.13-1,31.82,31.82,0,0,1,10.13,1.33c4.18,1.49,3.82,3.76-1,5.8a26.55,26.55,0,0,1-6,1.62,15.27,15.27,0,0,0-3.12.77Zm-.63,1.9c.07,3.12-1.81,7.22-3.58,10.37-2.59-.48-5.22-1-7.63-1.47,2.15-2.89,4.33-6.28,4-7.78-.45-2-2.38-4.26-5.71-6.76-1.1-.83-2.18-2.45-.54-3.89l1.87.71C510.56,131.2,517,133.58,517.07,138.13ZM503.3,127.91l-.24-.1a33,33,0,0,0-5.81-1.6c5-2.13,14.05-4.2,16.18-4.68l2.9,1.86c-1.29.43-6.57,2.17-10.84,3.56A10.45,10.45,0,0,0,503.3,127.91Zm-1,.15.51.21c-2,1.61-.83,3.45.4,4.38a17.67,17.67,0,0,1,5,5.17l-5.36.19c-.86-3.1-8-5.46-9.18-5.82-.14-.22-.62-1.24.37-3.81.23-.6,1.18-1.23,2.55-1.87A31.4,31.4,0,0,1,502.27,128.06Zm-9.31.23c-.91,2.34-.63,3.45-.42,3.86-2.2.25-11.35,1.39-13.36,3.45a1.94,1.94,0,0,0-.6,2.43c.25.68.48,1.32-.82,2.5-4.29-1.11-7.79-2.23-8.82-2.57a29.44,29.44,0,0,1,3.37-2.68,24,24,0,0,1,5.78-2.64,81.28,81.28,0,0,0,7.82-3.17,36.05,36.05,0,0,0,6.44-3.76q1.71.3,3.24.6C494.19,127,493.21,127.65,493,128.29Zm-12.24-4.43c3.52.54,7.25,1.1,10.64,1.68a34.88,34.88,0,0,1-6.31,3.66,76.79,76.79,0,0,1-7.73,3.14,24.66,24.66,0,0,0-6,2.72,56.45,56.45,0,0,0-8.35,7.6l-2.39.52a103.68,103.68,0,0,1-.69-12c0-1.6-.56-5.36-4.87-10a107,107,0,0,1,15.63,1.13C473.62,122.79,477.06,123.31,480.72,123.86Zm-23.66,7.29a102.44,102.44,0,0,0,.69,12.67,108.8,108.8,0,0,0-14.48-3.5,4.12,4.12,0,0,0,.83-.65c.33-.52-2.15-8.95-2.66-10.65.05-.24.24-2.26-4.87-3.22-1.53-.29-3.43-.58-5.35-.86,2.74-1.7,4.54-3.53,4.72-5.46,2.28.57,4.28,1,5.64,1.26a80.21,80.21,0,0,0,9.17.36h1.33C455.56,124.74,457.08,128.23,457.06,131.15Zm-35.4-7s3.27.37,6.95.86c-5.06,2.91-12.91,5.44-19.53,7.37-3.7,1.08-6.83,2.13-9.87,3.15l-1.22.41c-7.2-.26-11.42-.05-14.44.42L378,133.85l-4.2-1.68c.48-.23,1-.47,1.53-.7,5.12-2.16,9.36-2.88,14.26-3.7l1.75-.3c5.29-.91,23-3.55,24.81-3.82Zm-44.45,10,5.29,2.42-.36.08c-4.24.86-6.58.55-13.53-.38l-.22,0a15.17,15.17,0,0,1,4.79-3.7Zm-54-22.23h9.13c.06.63.27,2.84.48,4.8h-9.5A35.52,35.52,0,0,0,323.25,111.89Zm.09,5.18h9.56c.16,1.48.31,2.74.37,2.9.15.38,5.3,5,6.63,6.22l-6,.53L329.5,129c-1.38-1.44-6.59-7.09-6.27-10.43C323.28,118.05,323.32,117.55,323.34,117.07Zm35.09,3.72L353,113.38c1.61,0,4.83-.18,8.22-.35,1.19-.06,3.06,0,5.2,0l.7,5.16A32.06,32.06,0,0,1,358.43,120.79Zm9.78-2.61-.21-1.49h19.12a6.5,6.5,0,0,1,.63.66c1.16,1.44-4.37,2.61-8.84,3.55l-2.19.47Zm-.26-1.87-.45-3.22c5.82.21,13.05.68,14.08.75a17.3,17.3,0,0,1,5.09,2.47Zm13.46-2.86c-2.79-.18-15.82-1-20.24-.79-3.54.18-6.89.31-8.4.36l-2-2.78,9.58-7,4.53,2.55,14.89,1.07,3.53,3.37ZM359.7,102.87l-10,7.35L352,113.4v0h0l5.35,7.37-12.45-.73-4.33,5.66c-2.65-2.38-6.13-5.56-6.24-5.83s-.71-6.06-.92-8.2l0-.16H315.29a17.58,17.58,0,0,1,3.31-4c6.19-5.67,10.41-10.28,12.89-14.16,13.38-.26,21.19,1.39,25.53,2.92,4.8,1.7,6.44,3.6,6.72,4l-4.05,2.56Zm-37.48,9a35.68,35.68,0,0,1,0,6.7c-.36,3.69,5.65,9.9,6.54,10.81l-6.29,3.23a38.84,38.84,0,0,1-4.57-4.66c-3.43-4.23-6.16-10-2.78-16.08Zm7.27,17.77c2.23.33,13.21,1.92,20.46,2.25,7.06.32,16,3.5,17.5,4.07l-.08.1-1.66-.22a117,117,0,0,0-26.6-.06v0l-1.66.27-8.5,1.41a53,53,0,0,1-6-4.41Zm7.29,7.67,1.44,3.42L321,143l-8.1,1.19L311,141.63Zm-46.54-7.82c2.23.69,4.08,1.17,5.24,1.45l-7.87,2.9-4.08.42-1.72-2.22A86.36,86.36,0,0,0,290.24,129.51Zm-4.85,30.21L301.21,158v0l17.62-3.07,1.85,2.81,1.53,3.48h-2.36l-.08.21a23.23,23.23,0,0,1-3.14,4,3.78,3.78,0,0,0-.57.88l-8.95.51c-3.2.16-5.42.18-7.38.19a71.8,71.8,0,0,0-9.69.57c-1.58.2-4,.3-6.83.34a41.4,41.4,0,0,1,1.18-4.44A31.05,31.05,0,0,0,285.39,159.72Zm5.28,9.07a63.19,63.19,0,0,1,8.81-.51c2,0,4.36,0,7.75-.21l8.46-.48a9.94,9.94,0,0,0,.62,4.43l-31.43,6a12.89,12.89,0,0,1-1.86-8.84A75.42,75.42,0,0,0,290.67,168.79Zm3.06,15.09a41.28,41.28,0,0,0-8.27,1.64c-.77.24-1.51.46-2.4.66-2.68.61-7.77,1.87-10.9,2.64,1.37-2.77,3.59-6.91,5.66-10.71l4,.5c.12.18.24.37.37.55C283.94,181.64,287.81,183.23,293.73,183.88Zm-12.41-20.42a40,40,0,0,0-1.22,4.46c-6.87,0-14.81-.3-18.29-.43l-1.51-.05c-.38,0-1.11,0-2.1,0L258,162.8l24.29-2.72C282.05,161.1,281.7,162.22,281.32,163.46ZM258.75,193.2v-3.51l9.61.25c-.27.57-.47,1.05-.6,1.39-.64,1.71-3.42,3.21-7,5.12-1.46.78-3.05,1.64-4.68,2.61Zm-4.38,6.94a39.91,39.91,0,0,0-6.44,5,22.46,22.46,0,0,1-2.26,1.91c-2.95-.47-9.42-1.5-11-1.82-.6-.13-.68-.29-.82-.59-.25-.5-.59-1.19-3.8-1.83-4.82-1-15.37-2.31-16.1-2.4l-8.15-1.51,1.06-3.63c2.07-.29,2.55-.72,2.64-.83l0,0,1-2.28c2.16-.21,10.92-1.07,18.3-1.83a148.37,148.37,0,0,1,21.51-.87l7.19.21v3.56Zm-40.39.91c2.38.31,11.23,1.47,15.39,2.31,2.76.55,3,1.07,3.23,1.52s.34.68,1.39.9c1.61.34,8,1.35,11,1.83-10.43,7.53-34.46,17.63-34.73,17.75l-.48.2a49.29,49.29,0,0,0-13.89,1.76c-1.88.57-4.33,1.53-7.18,2.64-7.81,3-18.65,7.27-25.91,6.54l-6.56-1.38c2.71-1.56,14.87-8.44,21.74-10.31,7.82-2.13,16.13-6.9,16.82-9.63.55-2.15,4.4-6.72,5.21-7.67l8.56-.86a1,1,0,0,0,.57-.21Zm-51,36.13c.41,0,.82,0,1.25,0,7.76,0,17.84-3.93,25.26-6.83,2.8-1.09,5.21-2,7-2.58a46.94,46.94,0,0,1,13.07-1.64l7.75,11.29-53.11,17.2-4.8-10Zm54.92.81c2.19,1.57,16,12.06,11.49,22.34a36.69,36.69,0,0,1-8.26,12.11,51.16,51.16,0,0,1-9.47-2.42c-16.15-5.68-29.24-18-31.21-19.89Zm15.21,22.44c1.89-4.38.79-8.7-1.38-12.42l28.59-3.92,19.78-2c0,.09,0,.18,0,.27-.57,5.13-2.21,17.35-4,27.23a49.35,49.35,0,0,0-24.61-1.77c-3.63.66-6.81,1.52-9.89,2.35-5.69,1.53-10.67,2.87-16.78,2.59A37.54,37.54,0,0,0,233.07,260.43Zm48.32-18.08a.51.51,0,0,1,0-.13c3.49.7,15.64,3.07,27.41,4.48l2.36,14.72c-3.14-.27-13.27-1.08-21.69-1.08A83,83,0,0,1,279,260C280.12,252.78,281,245.89,281.39,242.35Zm28.85,4.51a123.15,123.15,0,0,0,13.27.9c.81,0,1.59,0,2.34,0,2.25-.1,4.55-.3,6.82-.56a24.49,24.49,0,0,0,4.21,2.5c1.91.95,3.3,1.64,3.35,3a22.1,22.1,0,0,1-.84,5.62c-1.62-.13-3.07-.21-4.09-.21a53.43,53.43,0,0,0-8.2,1.32c-4.63.93-10.38,2.09-14.48,2.13Zm46.84-4.48,24.06-5.84,0,.17v0c0,.06,1.21,2.84,2.61,6.2l-.22,0,.3.63.18,0c1.67,4,3.56,8.64,4.11,10.33a41.2,41.2,0,0,0,1.95,4.18c-2.26-.05-4.27-.07-5.88,0-7.74.14-20,2.72-23.44,3.48C360,256.24,358.63,249.58,357.08,242.38Zm32.47,11.4c-.14-.42-.36-1-.64-1.74l14.3-2.2L410.7,259c-6.42-.36-13.43-.7-19.11-.85A40.68,40.68,0,0,1,389.55,253.78Zm10.57-12.16,17.3-2.1c2,3.2,3.66,5.89,4.23,6.79L404,249Zm19.93-2.42,10.41-1.26,4.2,6.3-10.59,1.39C423.37,244.52,421.82,242.07,420.05,239.2Zm11.71-1.42,3.27-.39,6.39.79h.37L472,233.83c.48.46,1,.91,1.48,1.37q1.9,1.73,3.6,3.49L436,244.07Zm44.9-3.29a51,51,0,0,1-11.44-14l19.65-1.87,6,4a117,117,0,0,1,14.58,12L480.8,238.5Q478.87,236.48,476.66,234.49Zm15.25-12.13-5.71-3.87,18.49-1.77c8.16,2.87,16.12,5.76,22.73,8.3,3.44,1.32,7.47,2.79,11.94,4.36l-32.69,5.09A118.27,118.27,0,0,0,491.91,222.36Zm37.6,1.47c-2.94-1.13-6.14-2.32-9.51-3.55a83.07,83.07,0,0,0,6-8.69,25.84,25.84,0,0,1,10.61,5.17c-1,3.41-1.76,7.13-2.11,8.93C532.74,225.05,531.06,224.42,529.51,223.83Zm-3.67-18.58c-1.55-3.79-3.81-9.88-4.31-11.23,3.69-.05,8.93-.13,13.69-.23.58,1.32,3.25,7.53,4,12.34h0l-.16,0Zm-4.47-11.77-1.73-7.7,1.25.23c3.75.7,8.38,1.56,12.86,2.18l1.28,5.07C530.28,193.36,525.05,193.43,521.37,193.48Zm-.09-7.94-1.56-.29,1.13-7.19c5.08.93,10.16,2.07,15.3,3.43l-2.35,6.17C529.46,187.06,525,186.22,521.28,185.54Zm-.09-8.82,4-10.58a.07.07,0,0,0,0,0l-.4-1.6c9.92,2.07,19.1,4.24,19.76,4.4L562,174.41l-24.16,6C532.26,178.94,526.73,177.71,521.19,176.72Zm44.32-15.3c3.92-5.45,7.49-17.32,4-21.9l.79-.15c6.84-1.31,17.31-2.92,32.43-4.33l0,.15c-.58,2.54-5.8,5.93-5.89,6l-13.89,8.68a.19.19,0,0,0-.06.07s-1.4,3.62-2.72,7.23c-.79,2.14-1.4,3.87-1.82,5.12-.26.8-.44,1.35-.54,1.73C574.3,163.37,570.37,162.55,565.51,161.42Zm38.31-26.13c0-.12,0-.23.07-.35,7.56-.69,16.24-1.33,26.2-1.85,2.61-.14,5.19-.24,7.76-.32l15.76,19.4-44.37,1.32a29,29,0,0,0-2.94-2.06c-4-2.51-7.95-9.27-8.39-10.06C598.66,140.88,603.26,137.77,603.82,135.29Zm-1-.69c-15.52,1.42-26.25,3.07-33.22,4.41l-.45.09c-.11-.11-.21-.22-.33-.32-3.21-2.74.49-3.64,6.6-5.13,1.93-.47,4.12-1,6.34-1.66a49.94,49.94,0,0,0,14-6.43,25.05,25.05,0,0,0,2.19,1.28C602.81,129.35,603.24,132.22,602.84,134.6ZM583,131c-1.45-1.72-7.92-9.62-11-16.78l2.9.93c1.78.58,3.62,1.18,5.68,1.78,5.37,1.56,8.83,4.11,11.93,6.38.84.62,1.66,1.22,2.5,1.79A47.18,47.18,0,0,1,583,131Zm-53.77-16.53a15.9,15.9,0,0,1-1.59.62c-1.35.41-2.79.83-4.29,1.24-.95-.49-3.73-1.9-6.1-3-.49-.22-1-.43-1.55-.66-2.6-1.09-5.52-2.33-7.15-4.46s-10.18-6.32-12.69-7.49c1.18,0,2.31,0,3.44,0,1.68,0,3.43-.07,5.36.08,1.61.13,2.92.29,4.19.45a68.94,68.94,0,0,0,10.36.61c6.21-.05,12.83.2,14.57.27.73,2.45,1,5.6,0,7l-.46.66A19.82,19.82,0,0,1,529.27,114.49Zm-52.65-18c.74.12,1.45.25,2.13.4a12.34,12.34,0,0,1-2.24,4.7l-21.17-2.68.73-.27,1.09-.41A67.32,67.32,0,0,1,466,95.69,74,74,0,0,1,476.62,96.52Zm-.35,5.43a39.76,39.76,0,0,1-3,3.64l-24.41-2.84a9.51,9.51,0,0,1,.84-.65l.88-.6a15,15,0,0,1,4.07-2.29Zm-3.34,4c-1.81,1.93-3.48,3.43-4,3.91l-23.34-3.49a26.62,26.62,0,0,1,2.89-3.27Zm5.31,5.69a28.7,28.7,0,0,0-7.76,10.22,115.85,115.85,0,0,0-15.79-1.07,33.77,33.77,0,0,0-3-2.73,54.79,54.79,0,0,0-9.76-6.28,59.74,59.74,0,0,1,3.34-5.06Zm-26.54,9.11h-1a82.33,82.33,0,0,1-8.77-.33c-1.38-.21-3.6-.74-6-1.36a.91.91,0,0,1,0-.17c-.33-3.37-1.73-7.8-8.81-11.83C439.19,111.21,447.07,116.06,451.7,120.72Zm-17.89-2.24-1-.27c-4.77-1.23-9.25-2.38-11.36-2.53-2.45-.16-5.08-.11-6.62-.06l-1.54-7.47c0-.09-.24-.16-.51-.16h-3.5c-.19-.53-1.06-2.13-4.49-3-1.48-.37-2.46-1-2.77-1.87s.25-2,1.52-2.53c.16-.07.14-.17,0-.23a33.07,33.07,0,0,0-5.68-1.47,9.78,9.78,0,0,0-3.37.19c-.65.16-1.06.37-1.07.55s.11.26.36.62c.54.77,1.54,2.22,1,3-.7,1.14-2.86,1.72-4.1,1.75h0a6.61,6.61,0,0,1-4.27-3.08,3.71,3.71,0,0,0-2-1.54,4,4,0,0,1-2-1.46c-.77-1.39-4.71-7-6.1-7.57l-.76.21c1.12.47,4.95,5.75,5.89,7.44a4.29,4.29,0,0,0,2.15,1.6,3.26,3.26,0,0,1,1.83,1.39c.61,1.35,3.19,3.42,5.34,3.36,1.89,0,4.29-.82,5-2,.55-.9-.45-2.34-1-3.19a2.89,2.89,0,0,1-.33-.54s.19-.16.64-.27a7.21,7.21,0,0,1,2.49-.14,29.91,29.91,0,0,1,5,1.28c-1.27.65-1.84,1.68-1.47,2.67s1.48,1.68,3.17,2.11c3.67.93,4.13,2.88,4.13,2.9s.24.17.51.17h3.48l1.49,7.32h-.3l.17.38.21,0,.46,2.24v0a5.54,5.54,0,0,0,3,2.55c.38.09.58.16.62.23s-.37.33-.92.62l-.65.34c-1.11.59-1.09,1-.93,1.29-3,.45-19.43,2.91-24.53,3.78l-1.74.3c-5,.84-9.35,1.57-14.63,3.8-.52.21-1,.43-1.45.65l-4.56-3.58c.41-.57,3.26-4.51,5.5-5.68a32.22,32.22,0,0,1,5.35-1.37c4.8-1,10.74-2.26,9.34-4-1.71-2.12-5.38-3.35-6.37-3.65l1.95-3.42-3.83-3.64-15-1.08-4.64-2.61,3.94-2.49,0-.07c-.06-.09-1.51-2.23-7-4.17-4.46-1.58-12.45-3.28-26.08-3,3.1-5,3.29-8.82.95-12.11l11-5.74c3.87,2.12,6.38,3.43,6.68,3.59,2.52,1.58,37.4,17.06,68,25.46l.58.17C428.26,107.82,433.07,112.29,433.81,118.48ZM331.64,80.93l0,.07c2.36,3.28,2.16,7.09-1,12.1-1.34,0-2.74.09-4.2.16l-6.9.33L322.68,81l9.73-12.12c4,2.37,7.74,4.45,10.71,6.09Zm-5.07,12.66c1.36-.07,2.66-.12,3.92-.15-2.48,3.84-6.69,8.41-12.84,14-8.29,7.58-5.1,15.35-.81,20.65a48.28,48.28,0,0,0,11.06,9.51l-8.56,1.42-7.84-8.57-3.9-11.65,0-.06h4.81l.09-.38h-5.1l-4.15-7.64c0-.15-.65-1.91-4.79-4.27,1.74-.42,8.31-2,12.93-3.5,5.06-1.6,7.73-8,8.14-9Zm-15.86,9.14c-4.55,1.43-11,3-12.79,3.46-3.69-2.4-2.76-10.18-2.59-11.41,5.89-.12,13.22-.36,23.16-.81C318,95.13,315.34,101.27,310.71,102.73Zm-15.54,1.45-7.55.71-2.4-2.75c3.36-.18,6.56-.34,9.16-.46A9.36,9.36,0,0,0,295.17,104.18ZM279,94.56h-5.77a71.07,71.07,0,0,0-11.75.77c1.74-.91,4.12-2.29,5.86-3.36,2.65-1.62,7.15-4.56,7.86-6.14A8,8,0,0,1,278,82.21c.05,0,.07-.06.07-.09s.12-4,4.46-9.48a38,38,0,0,1,4.77-5c5.12,4.33,6.88,24.59,7.05,26.78C288.15,94.58,283.56,94.57,279,94.56Zm-5.89.34H276l-1.63,7.53a112.93,112.93,0,0,0-11.63,1.12c-3.17.76-7.67,1.56-9.09,1.81a63.39,63.39,0,0,1-5.05-4.34c3.51-.51,8.73-2.11,9.27-3.45.11-.28.32-.78,1.57-1.28a2.81,2.81,0,0,0,.57-.2C261.91,95.47,265.68,94.92,273.15,94.9Zm-19.36,11.41a73.24,73.24,0,0,1,9.46,6.81l-8.73.78c-1.92-1.81-12.86-5.69-17.08-6-2.67-.21-2.16-3.47-1.17-5.66l8.14,2.26,8.53,1.27C253.24,106,253.53,106.15,253.79,106.31Zm-.13,7.89c.42.51.2,1.46,0,2.47-.55,2.31-1.24,5.22,4.42,6a79.75,79.75,0,0,0,10.79.65c3.29,0,5.88-.14,6.79-.2a56,56,0,0,0,7.32,3.73l-4.9,1-11.88,1.59-2.38,2.74,3.06,2.85.5-.08c.08,0,8.21-1.39,13.48-2.62l1.62,2.09-17.64,1.8a191.68,191.68,0,0,1-37.68.23c3.77-.7,10.07-2.21,12.3-4.67.7-.78,1.75-1.77,2.85-2.8,3.77-3.54,8.37-7.86,4.64-9-1.26-.41-3.91-1.18-7.25-2.16l-7.93-2.34L245,110.25C249,111.59,252.88,113.27,253.66,114.2ZM235,116.88l-21.38,8.45-4.68-1.47,22-8.17Zm-26.85,6.77-9.32-1.93L200,115l17.63-3.51c3.31,1.14,8,2.57,12.62,4ZM197.69,122l9.58,2-18,6.68c-2.58-1.63-8-4.08-17.88-4.36-3.3-.09-7-.24-10.92-.45l3.83-4.27c2.05.19,15,1.45,19.28,2.28,4.69.9,14.09,3.62,14.18,3.65l.77-.33c-.39-.12-9.55-2.77-14.31-3.68-4.56-.87-18-2.16-19.57-2.31l5.86-6.56,28.43.5Zm-34.05-.9-26.38-2.69-19.41,2.11-.72-.29-1.25-.7,2.75-4.53,7-3.45c2.76.48,18.33,3.08,26.4,3.08h.34c8.11-.08,13.13-.08,17.09,0Zm-46-6.18-2.54,4.17-12.66-7,10.3-3.73,12.09,3.07Zm3,19.09a21.89,21.89,0,0,1-2.29-5.21c-.1-.32-.2-.62-.3-.88a4.75,4.75,0,0,1-.14-2.64,24.46,24.46,0,0,0,.54-3A127.24,127.24,0,0,0,135.78,125c-5.2,4-1.52,10.41,2.7,12.32,4.64,2.1,15.76,5.15,30.66,8.39a20.56,20.56,0,0,1-4.08,6.06l-43.09-3C125.47,144.92,122.52,136.75,120.69,134Zm45,18.38,9.28,1.39-2.52,2.83-8.06,3.4-5.71-1.41A52.23,52.23,0,0,0,165.68,152.36Zm7.76,4.4L176,153.9c2.46.36,5.05.73,7.42,1a92,92,0,0,1,9.35,1.83,36.47,36.47,0,0,0-4,2.38,82.58,82.58,0,0,1-8.38,4.77l-15.09-3.73Zm16.31,2.55a35.39,35.39,0,0,1,3.89-2.31c1.81.45,3.66.94,5.61,1.46,2.62.69,5.33,1.41,8.47,2.17.91.23,1.76.47,2.57.74a55.62,55.62,0,0,1-7.21,2.83c-4.73,1.42-10.6,2.84-16.74,4.3l-.27.06-4.95-4.32A83.59,83.59,0,0,0,189.75,159.31ZM193.12,176l-29.68.43a93.26,93.26,0,0,1,13.75-5.16c2.29-.6,5.17-1.28,8.23-2Zm3.16,19.69c3.17,0,6.09,0,8-.11l1.34-.09-1.09,3.7c0,.1.08.2.3.23l8,1.5-4.76,5.26-8.57.86a1,1,0,0,0-.57.22c-.2.22-4.83,5.53-5.47,8-.59,2.28-8.07,6.92-16,9.08-7.37,2-19.91,9.14-22.38,10.57l-9-1.89,23.14-12.49c1-.48,17.13-7.83,19.66-13.41a70.2,70.2,0,0,0,4-11.45ZM141.9,216.17a2.33,2.33,0,0,1,.1-.89c1.33-.65,9.08-4.45,11.48-6,1.34-.86,2.43-1.66,3.8-2.68s2.88-2.12,5.23-3.76c3-2.1,4-2.27,5.63-2.55a28,28,0,0,0,4-.95,50.36,50.36,0,0,0,9-3.94c1.1.06,2.3.11,3.77.14,1.9,0,4.31.07,6.81.09a70.93,70.93,0,0,1-4,11.46c-2.18,4.79-15.26,11.17-18.53,12.71-1-1.12-4.6-4.27-11.17-3.84-4,.27-8.33.87-11.84,1.35-1.51.21-3,.42-4.18.55A8.64,8.64,0,0,0,141.9,216.17Zm49.9-21.08c-2.44,0-4.77-.05-6.63-.09-2.38-.05-4.08-.15-5.72-.24-2.39-.14-4.64-.27-8.67-.24a23.47,23.47,0,0,1-7.35-.88,9.72,9.72,0,0,0-3.09-.48c-1.35,0-5.93-.17-10-.37,3.51-.17,6.93-.46,9.54-.77,3.22-.39,4.82-.72,6.1-1a31.91,31.91,0,0,1,5.48-.72,166.74,166.74,0,0,0,20.75-2.8C192.77,189.38,192.48,192.14,191.8,195.09Zm-52.38,45.63c.33-1.5,4.61-5.88,5.88-7.16L161.67,237l-3.7,7.73a.17.17,0,0,0,0,.14L162.81,255l-6.06,1.11c-.76.1-12,1.52-22.74,2.25l-1.16-4.93C133.41,252.45,139,242.51,139.42,240.72Zm136.87,35.16c.89-4.26,1.82-9.78,2.64-15.19a101,101,0,0,0,10.41.34c8.6,0,19,.86,21.76,1.1l-2.3,4.34c-1.45.62-10.62,4.7-16.74,9.61-5.43,4.37-12.73,5.68-14.94,6A13.14,13.14,0,0,1,276.29,275.88Zm17,.54c6.47-5.21,16.48-9.47,16.58-9.52a.47.47,0,0,0,.25-.2l2.39-4.51c4.4,0,10.29-1.23,15.05-2.19a55.48,55.48,0,0,1,7.66-1.27c1,0,2.43.07,4,.2l-.1.34L335.32,268s0,0,0,0-1.39,4.86-17.36,8.23c-14.89,3.15-19.73,7.75-20.81,9-9.74-.56-17.3-.92-19.23-1-.2-.5-.38-1-.55-1.48C279.86,282.45,287.5,281.08,293.28,276.42Zm51,13.21c2.72.31,5.34.6,7.9.87a88.63,88.63,0,0,1-7.19,8.28L298,293a1,1,0,0,0-.25,0l-15.28.88a95.34,95.34,0,0,1-4.22-8.81C285.23,285.39,324.15,287.33,344.23,289.63Zm.4-.75c-12.19-1.39-31.28-2.65-46-3.5,1.25-1.33,6.14-5.53,19.78-8.42,2.53-.54,4.71-1.11,6.59-1.69a47.08,47.08,0,0,0,12.91,3.79c7.46,1.26,17.08,2.09,19.81,2.31a48.69,48.69,0,0,1-5,8.4Zm17-16a16.28,16.28,0,0,1,4.69,2.17l.18.11c2.9,1.78,15.36,1.66,18.39,1.6l10.09,14c-13.35,1.46-25.88.75-40.85-.8C358,284.65,361,278.84,361.63,272.87Zm24.71,3.74,13.16-2c2.91,4.73,6.16,9.66,9.4,14q-2.67.39-5.49.88c-2.36.41-4.67.75-7,1Zm14.52-2.24,18-3.5,1.36-.25,13.68,16.69a115.8,115.8,0,0,0-23.59,1.13C407.06,284.07,403.8,279.12,400.86,274.37Zm17.5-4.17-17.93,3.48c-3.51-5.72-6.52-11.1-8.48-14.86,5.79.16,12.9.51,19.34.88l8.4,10.25Zm-13.83-20.56,17.52-2.7.18.29,13.28-1.74v0l12.2,10.34a93.69,93.69,0,0,0-10.75.37,6.54,6.54,0,0,0-2.53,1.41c-1.62,1.27-3.46,2.72-10,2.23-3.08-.23-7.41-.52-12.17-.79Zm32.32-4.32,15.54-2,19.66,12.66c-7.59-.08-16-.13-22.75-.1Zm16.93-2.22,24.45-3.21a67,67,0,0,1,11,16.26c-3.14,0-8.87-.13-15.41-.19Zm27.58-4L506,235.25c3,2.84,5.76,5.67,8.33,8.28.9.92,1.77,1.81,2.63,2.67-2.21.27-9,1.1-13.8,1.52-5.49.48-7.33,1.87-7.7,2.2a46.31,46.31,0,0,1-5,1.65A68.29,68.29,0,0,0,481.36,239.1Zm15.17,11.31a.38.38,0,0,0,.17-.11s1.43-1.46,6.86-1.93c5-.44,12-1.3,14.05-1.55.86.86,1.69,1.68,2.49,2.45,1.43,1.39,3,3,4.49,4.8l-31.67,2c-.61-1.25-1.27-2.53-2-3.82A47.25,47.25,0,0,0,496.53,250.41Zm39.25-24.26c.29-1.52,1-5.12,2-8.55l14,10.52-1.19,3.19C545.17,229.47,540.17,227.74,535.78,226.15Zm1.12-10.32A27.61,27.61,0,0,0,526.32,211c.71-1.36,1.09-2.45.8-2.94a23.62,23.62,0,0,1-1-2.28l12.8.83.42.07a6.9,6.9,0,0,1-.42,4.12A25.08,25.08,0,0,0,536.9,215.83Zm-.45-22.06c2,0,3.91-.09,5.51-.14h.5c7.41,0,15.54,5.13,16.68,5.87l-2.4,9.24-7.84-.85-8.38-1.52C539.82,201.49,537.08,195.18,536.45,193.77Zm5.16-5.34c-2-.08-4.27-.3-6.6-.61l2.28-6q4.83,1.32,9.76,2.9c2.5.8,7.27,2.17,13.15,3.82l-.17.64Zm7.21-4.79q-5-1.57-9.78-2.89l25-6.23a.34.34,0,0,0,.16-.06l.07,0c2,0,5.4.2,7.45,1.38,1,.61,2,1.25,3,1.86l1.43.91-14.78,8.7C555.7,185.7,551.17,184.4,548.82,183.64Zm12.55,5.2,1.56.44-1.65-.07Zm1-1.27L576.88,179a37.57,37.57,0,0,0,5.32,2.73,49.55,49.55,0,0,1,5.94,3.14,71.69,71.69,0,0,0,9.73,5,109,109,0,0,0,11.58,3.35l-6.9,5.15C591.43,195.46,574.59,191,562.42,187.57Zm36.22,2c-.66-.26-1.29-.54-1.91-.81,1.8-.56,7.79-2.42,10.74-3.62,3.09,1.18,7.34,2.59,12.09,4.07l-9.42,3.67A107.89,107.89,0,0,1,598.64,189.53Zm22,0c2.67.82,5.49,1.67,8.32,2.51l-5.89,4.25c-3.74-1.12-7.85-2.15-11.65-3.11l-.09,0Zm9.44,2.83c13.59,4,27.28,7.64,28,7.84s12,3.84,26.24,9.51c-16.47-2.67-47.5-7.95-53.74-10.74a58.94,58.94,0,0,0-6.42-2.34Zm-.51-.73c-2.76-.81-5.49-1.63-8.1-2.44l5.87-2.4c1.87.83,3.88,1.67,6,2.51Zm-11.92-10.36a7.44,7.44,0,0,0,3-2.25c1.48-2.32,2.53-6.84,2.75-7.84,10.18.48,24.5.77,40.79.93l.93,25.72c-4.31-.83-6.14-1.36-6.18-1.37l-.08,0C638.48,191.73,625.83,185.72,617.68,181.26Zm1.82-2.46a6.76,6.76,0,0,1-2.64,2c-1.42-.79-2.7-1.52-3.86-2.19l-2.6-1.48c-6.09-3.36-14.57-3.93-20.75-4.34l-3.16-.23c-5.46-.46-11.78-3.21-13.23-3.87,2.85-1.82,4.28-2.78,5-3.3,4.72.83,8.78,1.38,13.52,2s10.44,1.41,18.27,2.69c2.46.4,6.65.73,12.18,1C622,172.24,620.93,176.57,619.5,178.8Zm-8.74-9.87c-7.92-1.29-13.52-2.05-18.44-2.71-4.69-.63-8.68-1.17-13.37-2,.51-2,3.18-9.27,5-14.12l13.11-8.22c1,1.81,4.54,7.41,8.26,9.74a20.08,20.08,0,0,1,5.35,4.49c.58.66,1.24,1.4,2.17,2.32,2.52,2.5-.12,8.67-1.06,10.65Zm1-12.9a26.83,26.83,0,0,0-2-2.1L654,152.61l4.84,5.95-43.76,2.11a4,4,0,0,0-1.1-2.34C613,157.42,612.37,156.68,611.8,156Zm34.87-13.77,31.41-2.36L691.51,157l-31.59,1.52Zm-.35-.42-7.41-9.1c11.56-.32,22.84-.09,33.92.48l4.92,6.26Zm-16.58-9.15c-9.76.51-18.31,1.13-25.77,1.8.35-2.41-.22-5.29-5.2-7.84a24.61,24.61,0,0,1-2.33-1.38,569,569,0,0,1,57.66-2.37l2.65,9.35C647.92,132.1,638.94,132.2,629.74,132.69Zm-33.85-7.79c-.79-.54-1.58-1.11-2.38-1.7a36.88,36.88,0,0,0-12.29-6.53c-2-.59-3.86-1.18-5.62-1.76-1.28-.41-2.52-.82-3.75-1.19-1.67-4.1-2.13-7.92.19-10.19l1.75-.12c2.25-.13,5-.14,8.08,0a148.28,148.28,0,0,1,22,2.33c7.66,1.4,23.83,4.17,47.43,7.27l2.7,9.55A574.07,574.07,0,0,0,595.89,124.9ZM571.47,103l0,0-.2.17a73.46,73.46,0,0,0-12,1.77c-1.13.24-2.3.49-3.7.77a39.17,39.17,0,0,1-7.56.59c-3.15,0-6.13.06-8.63,1.44a33.79,33.79,0,0,0-4.42,3c-.92.69-1.85,1.4-2.84,2.06a31.84,31.84,0,0,0,2.23-3c.16-.24.32-.46.46-.66,1-1.42.74-4.73,0-7.24-.58-1.86-1.55-2.78-3.15-4.29-.68-.65-1.46-1.38-2.38-2.35-1.87-2-1.51-2.51-.91-3.41a4.63,4.63,0,0,0,.9-2.54v-.37l12.62.78c1.16.43,10,3.75,12,6,1.73,2,4.16,2.46,8.2,3.3,1.36.29,2.91.61,4.7,1.05C573.4,101.78,571.55,103,571.47,103ZM521.61,43.84l31.73,13.68L502.7,66.06a257.11,257.11,0,0,0-27.77-12.3c-17.38-6.61-25.47-11.58-30-16.64ZM444,37.09c4.54,5.12,12.65,10.13,30.24,16.83a257.17,257.17,0,0,1,27.79,12.34l-21.83,16s-1.56,1-3.23,2.28l-.31,0c-.09.15-.17.3-.25.45a20.1,20.1,0,0,0-3,2.76,8.66,8.66,0,0,1-3.89,2.52,9.64,9.64,0,0,0-2.31,1.18,6.57,6.57,0,0,0-1.91,4,66.78,66.78,0,0,0-8.94,2.6l-1.09.41a17.31,17.31,0,0,0-5.68,2.9l-.87.6c-3.09,2.1-6.39,7.35-7.62,9.41a117,117,0,0,0-21.22-7.8c-30.42-8.33-65.12-23.68-67.39-25.15l-.06,0c-.09,0-2.79-1.44-7-3.77L405.72,62.2l4.59-14.35,0,0L401,40.12C423,38.24,441.12,37.24,444,37.09Zm-54.1,4c3.48-.33,6.92-.64,10.27-.93l9.24,7.69L404.87,62,345,74.34a362.45,362.45,0,0,1-33.21-20.41C328.11,47.87,363.38,43.61,389.92,41.12ZM331.78,68.48l-10,12.46-3.13,12.69c-10,.45-17.36.69-23.27.81-.18-2.28-2-23.37-7.55-27.18,4.63-4,11.65-8.43,22.29-12.66C317.09,59.57,324.89,64.42,331.78,68.48ZM290.19,16.39a22.74,22.74,0,0,1,.42,10.84c-1.21,6.46,1.76,13,9.07,19.3,3,2.57,6.38,5.2,10,7.79C299.05,58.52,292,63,287.25,66.92c-2.77-1.76-17.39-11.26-23.42-19.1-5.52-7.17-1.5-14.11,12-21.78h0C282,23.34,287.14,20.15,290.19,16.39Zm-43,18.13A159.91,159.91,0,0,0,273,27.22c-5,3-8.41,5.93-10.38,8.81-2.74,4-2.64,7.9.41,11.88,6.42,8.37,22.55,18.6,23.81,19.4a38.47,38.47,0,0,0-5.17,5.3c-4.13,5.22-4.48,9.07-4.5,9.51a8.41,8.41,0,0,0-2.84,3.7c-1.15,2.57-12.56,8.94-14.93,10-1.39.45-2.23,1-2.51,1.72-.5,1.25-5.65,2.71-8.61,3.14-7-6.61-15.59-16.11-15.71-16.23h0c-.16-.15-16-14-15.8-24.89.2-10.3.45-11.26,10.07-19.57A162.1,162.1,0,0,1,247.22,34.52ZM202.9,60.76c-1-1.73-.6-3.95,1-6.58,3.09-5,10.61-9.72,21.41-13.65-9.05,7.84-9.3,9-9.52,19.09-.25,10.89,15.4,24.66,15.78,25,.65.71,13.95,15.44,20.67,20.61L245,104.15l-8.51-2.36,1.39-3.07-10.59-.63-5.68-1.48L212,88l.13-5s-.34-4.85-11.08-16.81C203,64.32,203.82,62.44,202.9,60.76ZM156.39,98.24c-8.51-.43-12.64-.86-13.9-1l26.57-15a199.42,199.42,0,0,0,19-7.77c4.64-2.24,9.56-5,12.52-7.71,10.33,11.64,10.65,16.3,10.65,16.35l-.15,5,0,0,9.65,8.71,6,1.57,10,.59-1.3,2.86c-.3.61-2.88,6,1.63,6.35a37.52,37.52,0,0,1,7.27,1.8L231,115.18c-6.85-2.05-13.74-4.19-16.23-5.32-5.09-2.31-16.84-4.86-25.06-4.86-4.09,0-9.86.51-15,1-4.85.43-9.44.85-10.72.63-1.76-.3.49-4.4,2.61-7.18a.1.1,0,0,0,0-.16C166.21,98.9,162.76,98.56,156.39,98.24Zm-15.64,3.39,24.73-2a31,31,0,0,0-2.1,3.25c-1.81,3.32-.85,3.9,0,4.05,1.58.27,5.91-.12,11.38-.61,5.05-.46,10.75-1,14.71-1,7.85,0,19.53,2.55,24.39,4.76.7.32,1.72.71,3,1.15l-17.45,3.48c-2.15,0-25.29-.43-29.15-.51-4.07-.09-9.19-.09-17.7,0-7.6.07-23.47-2.56-26.27-3l9.53-4.69Zm-3.12-1.06,0,0,2.17,1-4.91,4.85-9.4,4.62-12.69-3.21-10.88,3.93-11.12-6.18c6.24-1.23,12.09-2.54,17.09-3.74,12.77-3.06,22.61-6,25.2-6.77a3.37,3.37,0,0,0,.19.32A63,63,0,0,0,137.63,100.57ZM45.42,69.36c-1.12-.42-2.26-.82-3.4-1.22l62.12-3.38c14.16-.77,25.59,1.77,26.67,6l.09.34L58.84,75.83A69.44,69.44,0,0,0,45.42,69.36ZM69,86.05c-2-3.64-5.23-7-9.76-10L131,71.38l3,11.71c-.13.5-2.13,8.41-1,11.6-1.66.51-11.91,3.61-25.5,6.87-5,1.2-10.87,2.51-17.11,3.73L86.13,103c-.21-.43-1.54-2-10-3.6ZM22.15,110.4,34.42,96.87c22.81.74,34.71,2.26,40.83,3.5l.39.08,2.1,3.94,2.55,2.72a206.35,206.35,0,0,1-23.86,2.7c-12.9.56-24.72,1.15-35.42,2.27A6.75,6.75,0,0,1,22.15,110.4ZM38,120.67c-12.07-.6-18.65-4-17.13-8.23,10.65-1.11,22.47-1.7,35.38-2.27a209.73,209.73,0,0,0,24.34-2.75l7.85,8.38a242.58,242.58,0,0,1-25.53,5.06L62,121l-4.52.64Zm0,16.69c-.34,0-14.79-.1-35.25-.13,17.52-9.27,37.21-12.68,54.2-15.15l11.34,14.33C51,137.28,38.11,137.36,38,137.36ZM58,121.92l4-.58,1-.13a244.69,244.69,0,0,0,25.71-5.09l6.4,6.83-4.8,11.81c-4.06.45-8.35.85-12.74,1.12-2.78.18-5.49.33-8.12.47Zm4.12,25.39c.63-1.05,6.36-9.22,7.29-10.56,2.6-.13,5.28-.29,8-.46,4.44-.28,8.78-.68,12.89-1.14.16,2.32,1.07,14.91,2.07,17a5.72,5.72,0,0,1,0,2.69c-3.54.29-12.54,1-18,1-6.83,0-15.68-2.94-15.77-3l-.1,0c-.11,0-4-.68-10.33-1.61C61.73,148,62,147.55,62.14,147.31ZM18.89,157.79c1.86-.4,11.62-2.53,21.25-4.72l6.62-1.53c6.36.93,10.41,1.61,10.91,1.7.76.25,9.31,3,16.31,3,5.69,0,14.73-.69,18.31-1-.31,1.67-.86,3.78-1.48,5.92-5.47.15-44.32,1.16-75.1.18Zm62.58,12.07c-9.22-1.26-17.15-2.35-31.71-1.4-22.13,1.45-34.35,2.21-35.22,2.27-.39,0-2.95,0-7.14.07l7.9-8.94c31.13,1,70.35-.05,75.38-.19-1.16,3.93-2.49,7.84-2.9,9C85.58,170.43,83.51,170.15,81.47,169.86Zm19.44,2.06c-4.6-.28-8.47-.66-12-1.08.49-1.4,3.63-10.56,4.55-15.65l.35,0h.1l4.08-.63,4.65,8.51h.3c.23,0,3.88.19,7.69.19,2,0,4,0,5.63-.19,4.19-.38,11.62-2,13.42-2.38a34.53,34.53,0,0,1,8.37,4.53c.76.52,1.53,1.05,2.36,1.58C137.47,167.74,120.19,173.07,100.91,171.92Zm38.22-7a34.47,34.47,0,0,0-8.78-4.7c-8.76-3.15-12.11-7.44-8.8-11l43.1,3a50.38,50.38,0,0,1-8,6.92c-4.66,3.2-13,6.43-15.21,7.26C140.62,165.9,139.87,165.39,139.13,164.89Zm2.87,1.88c2.05-.76,10.77-4.12,15.63-7.46l.42-.29,5.48,1.35L146,168.89A36.09,36.09,0,0,1,142,166.77Zm11.05,4.72a55.33,55.33,0,0,1-6.39-2.28l17.76-8.62,15.16,3.75c-7.8,4-17.71,8.71-20.17,9.87A29,29,0,0,0,153.05,171.49Zm7,3.1c2.08-1,12.18-5.75,20.22-9.9l4.71,4.13c-3.06.73-6,1.42-8.26,2a95.3,95.3,0,0,0-14.32,5.37A26.23,26.23,0,0,0,160,174.59Zm3.19,2.29,29.75-.42c-2.05,1.2-4.16,2.47-6,3.62-2.18-.19-11.34-1-14.71-.44-.57.09-1.33.24-2.29.43s-1.85.38-3,.59A28.83,28.83,0,0,0,163.22,176.88Zm4.1,4.23,3-.59c.92-.19,1.65-.34,2.16-.41,2.63-.41,10.26.13,13.78.44A26.63,26.63,0,0,0,183,183a29.82,29.82,0,0,1-2.94,2.52c-3.32.67-6.31,1.15-9.1,1.48A26.67,26.67,0,0,0,167.32,181.11ZM49,211.67l-26.57-5.11,31.38-16.17c3.36,1.51,7.38,2.89,11,2.94,6.26.1,11.48.33,15.78.7C77.54,195.73,62.36,204.29,49,211.67ZM87.81,194.3a164.06,164.06,0,0,0-22.6-1.5c-5.87-.09-13.32-4.18-16.35-6,10.15,0,48.72-.11,61.91.58,3.73.2,6.26.37,8.11.49,5.11.34,5.47.32,9.53-.41l2.7-.48c5.4-.93,9-.39,14.57.43,2.5.37,5.34.79,8.76,1.12,11.88,1.15,21.89-.49,35-3.67,8-2,14.2-5.24,19.56-8.1a59,59,0,0,1,11.45-5.17c7.22-2,28.66-2.81,36.63-2.88l.4,7.94c-5,.76-44.36,6.75-48.35,7.46-1.45.25-3.37.47-5.4.69-4,.45-8,.9-10.22,1.78-3,1.2-16.37,2.88-22,3.22a35.15,35.15,0,0,0-5.91.77,58.2,58.2,0,0,1-5.83.94,147.07,147.07,0,0,1-16.22.94h-.05a37.16,37.16,0,0,1-6.92-.5l-.12,0c-2.3-.51-5.14-1.15-8.16-1.59-4.58-.66-10.64.38-14.11,2.44l-5.15,3.05C100.13,195.34,90.74,194.78,87.81,194.3Zm10,9,11.71-6.94c7.64.39,14.81.69,17.27.79l-8.83,5.35-21.36,3.88-2.86-.34Zm-34.53,21.4c10.46-4.78,23.43-13.92,23.56-14l6.12-4.12,2.93.35c.23.51.93,3-5.42,6.89-6,3.62-14.24,8.67-16.5,9.26-.71.19-2.42.43-4.24.68-2.14.3-4.57.63-6.66,1.05ZM44.78,241.35c.78-7.13,6.43-10.91,15-15,1.67-.83,6.43-1.5,9.9-2,2.09-.29,3.74-.52,4.62-.75,2-.53,6.8-3.28,13-7,2.92.52,18,3.17,25,4a31,31,0,0,0,3.66.19,158.26,158.26,0,0,0,18.38-1.67c2.32-.3,4.72-.62,5.16-.58a5.84,5.84,0,0,0,1,0c-.44,2.44-2.19,5.67-7.58,10.81-6.9,6.59-4,10-3.38,10.67l-2.66,5H85.65a47.19,47.19,0,0,0-18.79-1.58c-1.93.26-4.07.67-6.14,1.06-5,.95-10.14,1.93-13.14,1.14C45.44,245.07,44.53,243.66,44.78,241.35Zm-9.14,10.21c-13.46,1.27-18.76,1.41-25.52,1.27A30.76,30.76,0,0,1,1,251.52a71.22,71.22,0,0,1,6.81-4.63c1.52-.74,6.32-2.16,9.47-3.1l1.76-.52c2.92-.88,10.91-3.37,12.6-4,1-.34,7.92-1.39,13-2.08a13.26,13.26,0,0,0-1.21,4.3c-.28,2.51.78,4.06,3.25,4.71a12.74,12.74,0,0,0,3.23.35c.63,0,1.29,0,2-.08C50.46,247.64,46.05,250.59,35.64,251.56Zm31.28,6.32c-5.71-2.39-22.35-5.63-26.26-6.38,8.29-1.54,11.82-4.33,12.7-5.15,2.4-.28,5-.78,7.53-1.26,2.13-.41,4.13-.79,6-1a45.91,45.91,0,0,1,17.9,1.57l.13,0h41.57c-1.82,2.09-9.75,3.38-17.48,4.63-4.14.67-8.42,1.37-12,2.21-4.17,1-11.66,4.25-19.52,8.26A45.51,45.51,0,0,1,66.92,257.88Zm21.93,25.35c-5.09.56-14.19,1-28.86.2-4.54-.26-8.31-.53-11.54-.84a30.9,30.9,0,0,0,2.41-3.44c1.56-2.68,9.65-8.26,20.91-14.48,2-1.08,3.9-2.12,5.8-3.1,2.21.35,4.68.69,7.58,1.08l5.07.69c6.69.94,9.7,1.34,11.13,1.44a13.83,13.83,0,0,0-2.77,6.82C98.29,273.62,94.64,277.77,88.85,283.23Zm8,64.55C79.2,358.72,54,378.42,37.15,409.48a228.23,228.23,0,0,0-12.69,27.43c-1.56-21.36-7-39.67-16-54.93q-1.94-3.28-4-6.22C17,366.14,94.61,306.64,101,302.85c5.5-3.28,15.88-6.83,19.37-8-2.22,8.39-12.75,15.32-20.87,20.65-.91.6-1.8,1.18-2.64,1.75-9.41,6.28-12.12,13.53-7.61,21A31.24,31.24,0,0,0,98,347.08Zm71.69-35.59c-4.43,8.5-37.09,18.79-37.43,18.89l-.06,0a174.43,174.43,0,0,0-31.76,15.2,30.35,30.35,0,0,1-8.5-8.53c-4.4-7.27-1.92-14,7.17-20.11l2.64-1.74c9.35-6.16,21.85-14.39,21.67-24.58-.07-4.54-4.93-7.52-14-8.67a79.37,79.37,0,0,0-13.7-.4,1.22,1.22,0,0,0-.38.07,26.43,26.43,0,0,1-3.62.67c5.64-5.38,9.19-9.49,9.48-11.56.7-4.9,3-8.13,7.08-9.94,3.33-1.48,7.89-2.1,14.81-2,11.61.14,31.39-2.28,34.5-2.67a2.39,2.39,0,0,1,1,1.77c.07.57-1.1,1.87-2.35,3.24-2,2.24-4.59,5.06-4.52,7.39.06,2.11,3.78,4.12,8.12,6.48,3.82,2.06,8.18,4.43,10.43,7.18,3.4,4.15,11.48,8,16.28,10C177.21,299.37,171.26,307,168.56,312.19Zm112.62,4.49c-16.86,14.69-25.4,32.54-23.32,50.42,2,17.48,8,38.22,18.21,62.21a21.8,21.8,0,0,0-5.95-4.56l-.15-.06c-29.58-7.94-34.31-32.58-33.21-50.74,1.13-18.71,8.52-35.12,8.59-35.28l0-.07v-.06l-2.61-26.42-.4-.07c-11.24-2.05-28.37-5.58-29.87-7-2.18-2-17.3-6.06-22.47-5.64a70.24,70.24,0,0,1-7.81.11,69.2,69.2,0,0,1,6.05-5.52l.84.32a1,1,0,0,0,.39.05c.33,0,8.31-.15,28.21-2.08l4.12-.38L243,300.1l3.75,3.84h19.14l5.87-14.09a3.75,3.75,0,0,0,1.3-1.3,7.61,7.61,0,0,1,3.69-3.31c2.79,7,8.08,16.06,13.07,23.93Zm118,75.59c-.84,9.25-4.46,20.1-9.26,31.08-30.05-51.27-85.48-96.28-87.3-97.75-.68-1-12.18-17.08-19.73-31l14.75-.85,46.62,5.75c-2.47,2.5-4.86,4.72-6.85,6.58s-3.61,3.36-4.62,4.49c-1.66,1.84-1.92,3.51-.76,4.94a90.79,90.79,0,0,1,11.18,17.57c3.77,7.81,12.42,18.32,31.75,22.88a93.13,93.13,0,0,0,21.26,2.26q3.48,0,7.12-.21C401.72,369.19,400.11,381.67,399.14,392.27Zm4.3-35.21a97.75,97.75,0,0,1-27.86-2c-18.73-4.41-27.16-14.65-30.86-22.27a91.79,91.79,0,0,0-11.3-17.67c-1-1.21-.74-2.64.71-4.25,1-1.1,2.56-2.58,4.55-4.43s4.49-4.19,7-6.77l32.1,4a1.29,1.29,0,0,0,.44,0L406.29,298l3.37,2.06-1.36,25.74C408.26,326,405.88,340,403.44,357.06Zm48.27-9.43C434.65,352.86,419,356,405.12,357c2.38-17,4.71-30.86,4.75-31.09l1.31-25.93a.35.35,0,0,0-.18-.27l-3.91-2.37a1.23,1.23,0,0,0-.84-.11L378,302.85,346.41,299a88.57,88.57,0,0,0,7.17-8.3c18.44,1.92,33.2,2.58,50.29-.4q2.86-.5,5.56-.89a77.16,77.16,0,0,0,7,8.24l32.24,32.5A185.48,185.48,0,0,1,462,343.57,66.39,66.39,0,0,1,451.71,347.63Zm23.72-39.45.37.47c9.22,11.84,4,25.51-12.6,34.3A184.5,184.5,0,0,0,450,329.68l-32.26-32.44a73.88,73.88,0,0,1-6.91-8.08c14.67-2,26.13-1.66,35.82,1.07l2.15.61c5.18,1.47,12.31,3.49,19.92,5.34C467.91,297.5,468.93,299.93,475.43,308.18ZM470.15,295c-.25.16-.47.3-.68.45-7.81-1.88-15.07-3.94-20-5.32l-2.15-.61a65,65,0,0,0-11.75-2.12l-14.05-17.08,18-3.42.08,0c3.52-.95,13.24-3.29,16.08-2.88,2.15.32,3.19,1.86,4.52,3.82a28,28,0,0,0,2.5,3.32c.63.7,1.34,1.45,2.08,2.23,3,3.18,6.44,6.82,6.68,9.1a8.94,8.94,0,0,0,.84,2.7,8,8,0,0,1,.19,7.16A5.2,5.2,0,0,1,470.15,295Zm.75.79.42-.27a5.9,5.9,0,0,0,2.72-3,8.4,8.4,0,0,0-.22-7.49,9,9,0,0,1-.81-2.57c-.25-2.43-3.77-6.15-6.84-9.38-.75-.79-1.45-1.53-2.07-2.22a27.28,27.28,0,0,1-2.46-3.25c-1.48-2.17-2.63-3.87-5.52-4.29-3.86-.56-15.56,2.5-17.09,2.91l-18,3.42-8.15-9.91c4.44.27,8.46.54,11.37.75,7.44.56,9.73-1.23,11.38-2.53a5.53,5.53,0,0,1,2-1.19c1.53-.39,18.57-.36,35.31-.19,1.18,1.62,7.75,10.8,9.2,15.65a26.54,26.54,0,0,0,3.1,6.9,22.57,22.57,0,0,1,1.74,3.3c1.26,3,2.05,14.36,2.22,16.89C483.45,298.6,477.05,297.28,470.9,295.83ZM498,300.07a70,70,0,0,1-7.25-.51c-.15-2.2-1-14-2.3-17.19a24.38,24.38,0,0,0-1.78-3.36,26.2,26.2,0,0,1-3.08-6.79c-1.44-4.8-7.61-13.47-9.15-15.57,5.27.05,10.47.12,15.09.19a60.45,60.45,0,0,1,5.65,19.82v.1l6.09,23.39C500.13,300.1,499,300.08,498,300.07Zm1-23.38c0-.26-.12-1.47-.46-3.39l39.65,1.83a8.41,8.41,0,0,1,.43,2.07,40.39,40.39,0,0,0,.91,6.77c.34,1.63.76,3.67,1.23,7.32.38,3,.65,7.9.83,13-13-1.67-26.09-3.3-36.27-3.95ZM513.79,332l-8.22-30.81c10.11.66,23.11,2.29,36.08,3.95.28,8.15.34,16.72.34,18.92a.13.13,0,0,0,0,.06l6.48,25.18-6.56,22.35C520.16,350.72,514,332.59,513.79,332Zm82.13,95.28-1-1.66C584.67,410,571,395.47,554.34,382.4c-4.05-3.17-7.72-6.35-11-9.46L548,356.86l59.75,12c.28.51.57,1,.86,1.48C616.2,382.83,600.94,416.79,595.92,427.26Zm44.33-89.8-31.7,29.86c-7.49-14-12.61-35.58-13-37.28,5.62-7.58-5.88-20.63-8.12-23a34.53,34.53,0,0,0,16.41-8.68c1.29-1.2,3.58-3.15,6.43-5.51l19,4.17-11.8,10.81a.23.23,0,0,0-.09.18c0,.16,0,16.76-.64,18.73l1.58.29c.55-1.75.61-14.13.62-17.83l17.61,5.49C637.9,324.38,639.57,335.26,640.25,337.46Zm17.85-35.78c-.15.06-.23.15-.24.25l-1.46,23.86L638,314.34c-1.21-8.15-2.23-15.45-2.36-16.37l7.38-7.71,23.84,8.25Zm9.59-3.73-24.07-8.32,4.13-4.31,10.33,3.35a1.49,1.49,0,0,0,.47.07h.13a.66.66,0,0,0,.42-.17l4.57-5.7.27.1c.62.22,5.15,1.1,10.74,2.11ZM710,284.45c-7.68,3.74-12.77,6.15-13,6.24a82.33,82.33,0,0,0-14.14,7.65,8.78,8.78,0,0,0-3.11,3.78l-10.66-3.68,7.07-13.09c8.95,1.59,19.88,3.39,22,3.39l-.38-.76c-2,0-12.61-1.75-21.31-3.3l3.2-5.93A197.1,197.1,0,0,0,710,284.45Zm-35.55-7.23c1.28.39,2.57.77,3.88,1.14L675,284.41c-5.38-1-9.75-1.8-10.46-2l-.39-.15,5.27-6.57C671.24,276.23,672.91,276.75,674.45,277.22Zm-6.35-2-5.21,6.46c-2.68-1.14-8.09-3.48-13.85-6l7.39-4.38C660.67,272.8,664.59,274.1,668.1,275.23Zm-13-4.35-7.28,4.3-10.05-4.37,5.41-4.25C647.36,268.12,651.35,269.56,655.11,270.88Zm-13.17-4.79-5.39,4.21-35.23-13.88,5.77-3.74c8,2.91,15.8,5.83,22.76,8.67C634,263,638,264.61,641.94,266.09Zm-10.81-6.39c-3-1.22-6.18-2.46-9.45-3.7l8.77-8.31,10.39,3.3ZM598,236.94l-2.71-.63c-2.45-.57-4.77-1.11-7.27-1.58-3.14-.59-8.9-2-13.16-3.11-.89-.23-1.61-.39-2.26-.53a9.42,9.42,0,0,1-4.7-2c-.45-.33-.93-.65-1.39-.95-1.19-.78-2.22-1.45-2-2.06s1.54-1.11,4-1.66A22.21,22.21,0,0,0,575,222c1.63-.88,2.81-1.51,6.73-1.72.66,0,1.31,0,2,0,6.38,0,12.41,1.61,18.12,3.29A100.57,100.57,0,0,0,612,225.69c4.17.73,8.49,1.49,11.09,2.5,5.21,2,9.05,4.1,10.72,7.57a14.93,14.93,0,0,0,5,5.43,25.9,25.9,0,0,1,2.56,2.17c1.91,1.94.48,5.8-.06,7C635.31,248.5,601.45,237.72,598,236.94Zm2.59,1.41c5.93,1.77,18.82,5.84,28.59,8.94l-8.72,8.25c-8.2-3.09-17-6.23-25.84-9.29Zm5.28,13.89L600.13,256l-24.26-9.55,4.23-3.15C588.67,246.17,597.43,249.2,605.88,252.24ZM564.8,238.07c4.58,1.54,9.31,3.14,14.11,4.78l-6.58,4.88a.18.18,0,0,0-.07.25l4.41,7a.8.8,0,0,0,.55.27l19.85,3.12,1.26,3.76-26-4.33-.3,0h0a6.72,6.72,0,0,0-3.72,1,1.68,1.68,0,0,0-.29.24c-.82-3.33-2-8.26-2.59-10.46a3.62,3.62,0,0,0-2.48-2.25,23.55,23.55,0,0,0-7.84-1.07L554,238.84a.24.24,0,0,0-.09-.14l-3.6-3,.84-2.28C555.52,234.94,560.1,236.49,564.8,238.07Zm-12.73-10.81L538,216.7a27.19,27.19,0,0,1,2.15-5.66,6.92,6.92,0,0,0,.47-4.08l8,1.45h.1l8,.87.89,3.08Zm44.41-9.4c-1.21-.29-2.34-.58-3.37-.84-3.89-1-8-1.83-12-2.63-3.45-.7-7-1.42-10.29-2.23-5.93-1.44-11.32-2.83-12.83-3.22l2.85-11.11v-.07l-1-3.12,1.25-4.91,4,.15c15.7,4.34,36.39,9.85,44.43,11.93,3,.78,6.66,1.72,10.54,2.71-2.34,2.7-12.28,13.34-23.39,13.34ZM618.37,222a194,194,0,0,1-19.74-3.65c11.2-1,20.37-10.86,22.66-13.55l18.61,4.72L633,226A55.31,55.31,0,0,0,618.37,222ZM729,232c1.66,1.13,3.24,2.27,4.72,3.42A141.92,141.92,0,0,0,749,245.67l-77.62-11.79h-.18c-.19,0-18.69-.67-28.71-4.28-2.79-1-5.17-2-7.26-2.78l-1-.38,6.91-16.56,6.78,1.71c1.29.36,31.48,8.69,72.9,18.46ZM725,229.39l-3.25-.76c-41.9-9.86-72.22-18.23-72.52-18.31l-.08,0c-.26-.07-25.59-6.43-38.27-9.72-1.78-.46-4.26-1.1-7.21-1.88l6.9-5.17.36.09c6.57,1.65,14.06,3.53,18.85,5.68,6.89,3.09,41.25,8.83,56.92,11.35C699.13,215.67,713.5,222.2,725,229.39ZM748.19,211c.71,1.56,1.15,5.2,1.43,9.59-31.31-5.3-54.68-9.16-55.1-9.23-.12,0-2.89-.45-7.22-1.15l-.51-.2c-15.37-6.19-27.95-10.16-28.07-10.2l-.06,0c-.23-.06-14.14-3.76-27.94-7.8l3.71-2.27a181.46,181.46,0,0,0,24,7.2c.76.22,9.56,2.68,33.83,5.27,11.8,1.25,28.58,2.66,51.35,3.79C745.86,207.84,747.56,209.56,748.19,211Zm-70.46-11.11c-4.76-.66-8.48-1.28-11.3-1.79l-1-25.95c3.36,0,6.79.06,10.29.09Zm-.06-17.69,18.05,1.59,5.9,18.78q-5.11-.47-9.34-.92c-5.09-.54-9.48-1.08-13.26-1.59Zm27.26-9.88,16.81,0c-.36,2.8-1.29,12.86,2.81,18,2.24,2.83,7,6.37,11.59,9.84,2.41,1.81,4.78,3.58,6.79,5.24-16.32-.82-29.53-1.77-40-2.71l-6-19.07c0-.13-.32-.25-.64-.28l-18.62-1.64-.72-9.46C686,172.26,695.42,172.28,704.93,172.28ZM702.5,171c-39.18,0-76.8-.4-89.49-1.75.71-1.49,2.3-5.17,2.09-8.08l76.76-3.7Zm13.41-23.09c3.76,2.85,7.36,5.28,10.8,7.4l-34.1,1.65L674,133.28c11.12.6,22.08,1.52,32.94,2.55C708,139.75,710.68,143.9,715.91,147.88Zm-9.12-12.46c-16-1.52-32.27-2.8-48.95-3.14l-2.68-9.38q5.73,0,11.88.17c13.85.3,27.59.93,40.32,1.65A18.55,18.55,0,0,0,706.79,135.42Zm1.07-12c-.13.31-.25.63-.37.95-12.82-.73-26.66-1.36-40.62-1.67q-6.12-.14-11.82-.16l-2.69-9.42,2.36.31c14.86,1.91,34.69,3.57,56,4.72A30.16,30.16,0,0,0,707.86,123.4Zm7.93-11.28a36.08,36.08,0,0,0-4.85,5.67c-22.48-1.21-42.17-2.94-56.06-4.73-25.39-3.26-42.68-6.22-50.67-7.68a151,151,0,0,0-22.4-2.37c-3.19-.1-6-.08-8.32.06l-1,.06c.4-.37,1.19-1.68-5.23-3.23-1.82-.44-3.38-.77-4.75-1.06-3.93-.82-6.08-1.27-7.69-3.07-2-2.23-10.1-5.34-12-6a61.5,61.5,0,0,0,6-1.67c3-1,13.41-3.88,13.51-3.91h0a132,132,0,0,1,17-4.31,210.81,210.81,0,0,1,44-3.61q34,.72,70.28,12c16.28,5.11,21.5,11.2,23,15.49A9.74,9.74,0,0,1,715.79,112.12Z"/></g></g></svg>